<svg width="75" height="106" viewBox="0 0 75 106" fill="none" xmlns="http://www.w3.org/2000/svg">
<path d="M1.99256 106C0.664187 106 0 105.337 0 104.012V1.988C0 0.662667 0.664187 0 1.99256 0H50.6908C52.0723 0 53.135 0.344587 53.8789 1.03376L72.2104 19.1643C72.7949 19.6944 73.1668 20.145 73.3263 20.5161C73.4857 20.8872 73.5654 21.4969 73.5654 22.3451V44.1335C73.5654 44.8227 73.1137 45.6179 72.2104 46.5191L61.2115 57.4929L59.458 59.0833L64.3996 66.4786L74.3624 85.5634C74.6281 86.0405 74.7875 86.5176 74.8406 86.9948C74.9469 87.4189 75 87.9755 75 88.6647V104.012C75 105.337 74.3358 106 73.0074 106H47.8215C46.6525 106 45.8555 105.47 45.4304 104.41L34.5112 76.4186H33.1562V104.012C33.1562 105.337 32.492 106 31.1637 106H1.99256ZM36.7428 43.1793C38.9214 43.1793 40.6748 42.4901 42.0032 41.1118C43.3847 39.7334 44.0754 37.984 44.0754 35.8635C44.0754 33.7429 43.3847 32.02 42.0032 30.6947C40.6748 29.3163 38.9214 28.6272 36.7428 28.6272C34.6174 28.6272 32.864 29.3163 31.4825 30.6947C30.1541 32.02 29.4899 33.7429 29.4899 35.8635C29.4899 37.984 30.1541 39.7334 31.4825 41.1118C32.864 42.4901 34.6174 43.1793 36.7428 43.1793Z" fill="white"/>
</svg>
