<svg width="111" height="108" viewBox="0 0 111 108" fill="none" xmlns="http://www.w3.org/2000/svg">
<path d="M31.7529 8.22852H31.8896C34.7152 8.04622 38.361 7.95508 42.8271 7.95508C49.7542 7.95508 55.0407 10.097 58.6865 14.3809C62.3779 18.6647 64.2236 24.2246 64.2236 31.0605C64.2236 37.9876 62.5374 44.0033 59.165 49.1074C55.8382 54.166 50.6201 56.6953 43.5107 56.6953C39.318 56.6953 35.1709 56.1712 31.0693 55.123C31.0693 39.0814 31.2972 23.4499 31.7529 8.22852ZM61.4209 31.0605C61.4209 25.1816 59.6436 20.237 56.0889 16.2266C52.5798 12.2161 47.9313 10.4388 42.1436 10.8945C41.779 28.4401 41.5967 42.4993 41.5967 53.0723C42.5081 53.3457 43.8981 53.5736 45.7666 53.7559C51.0986 53.1634 55.0407 50.6569 57.5928 46.2363C60.1449 41.8158 61.4209 36.7572 61.4209 31.0605ZM18.6279 94.6348C18.5368 98.0072 13.2503 100.195 2.76855 101.197C2.40397 101.926 2.40397 102.997 2.76855 104.41C10.516 104.137 18.4684 104 26.626 104C36.333 104 45.6527 104.137 54.585 104.41C54.9495 103.681 54.9495 102.61 54.585 101.197C39.4548 100.286 31.8441 98.0983 31.7529 94.6348C31.2972 81.8288 31.0693 70.39 31.0693 60.3184C36.2191 61.3665 40.9814 61.8906 45.3564 61.8906C52.8304 75.7904 62.6742 89.8268 74.8877 104C77.2119 104 80.5615 104.023 84.9365 104.068C89.3571 104.114 93.3219 104.16 96.8311 104.205C100.386 104.251 103.758 104.319 106.948 104.41C107.313 103.59 107.313 102.519 106.948 101.197C99.4743 100.65 93.1624 98.8275 88.0127 95.7285C82.9085 92.584 76.9385 86.7962 70.1025 78.3652C65.4541 72.4863 61.2614 66.2884 57.5244 59.7715C64.2692 57.5384 69.5785 53.8242 73.4521 48.6289C77.3258 43.4336 79.2627 37.5775 79.2627 31.0605C79.2627 22.8574 76.6195 16.2266 71.333 11.168C66.0465 6.0638 58.7321 3.51172 49.3896 3.51172C18.5824 3.8763 3.08757 3.8763 2.90527 3.51172C2.63184 4.60547 2.63184 5.67643 2.90527 6.72461C13.387 7.72721 18.6735 9.91471 18.7646 13.2871C19.2204 23.9967 19.4482 36.7344 19.4482 51.5C19.4482 65.9466 19.1748 80.3249 18.6279 94.6348ZM15.8252 94.498C16.3721 83.1048 16.6455 68.7721 16.6455 51.5C16.6455 36.8255 16.4176 24.1335 15.9619 13.4238C15.8708 11.7376 10.7894 10.3932 0.717773 9.39062C-0.0569661 6.38281 0.0341797 3.44336 0.991211 0.572266C6.00423 0.845703 11.4502 0.982422 17.3291 0.982422C23.208 0.982422 29.9528 0.936849 37.5635 0.845703C45.1742 0.754557 50.7568 0.708984 54.3115 0.708984C65.3402 0.708984 73.999 3.51172 80.2881 9.11719C86.5771 14.6771 89.7217 21.9915 89.7217 31.0605C89.7217 37.4863 87.876 43.4108 84.1846 48.834C80.4932 54.2572 75.5257 58.3587 69.2822 61.1387C72.3812 66.1973 75.9814 71.3926 80.083 76.7246C84.9137 83.1504 89.6533 88.2546 94.3018 92.0371C98.9958 95.8197 104.191 97.9844 109.888 98.5312C110.617 101.448 110.526 104.387 109.614 107.35C103.097 107.167 91.1117 106.985 73.6572 106.803C60.8512 91.8548 50.848 77.8184 43.6475 64.6934H41.5967C41.5967 73.1699 41.8245 83.1048 42.2803 94.498C42.2803 94.7715 42.3942 95.0449 42.6221 95.3184C42.8499 95.5918 43.7386 96.0247 45.2881 96.6172C46.8376 97.2096 49.1846 97.7337 52.3291 98.1895C55.5192 98.5996 57.2965 98.8503 57.6611 98.9414C58.4359 101.493 58.2992 104.296 57.251 107.35C40.4346 106.985 30.2262 106.803 26.626 106.803C24.165 106.803 15.5745 106.985 0.854492 107.35C-0.284831 104.205 -0.284831 101.266 0.854492 98.5312C10.7438 97.5286 15.734 96.1842 15.8252 94.498Z" fill="white"/>
</svg>
