<svg width="77" height="106" viewBox="0 0 77 106" fill="none" xmlns="http://www.w3.org/2000/svg">
<path d="M0.373779 1.21143C12.105 0.403812 22.4709 0 31.4716 0C56.451 0 68.9406 8.32857 68.9406 24.9857C68.9406 32.0524 67.2214 38.3619 63.783 43.9143C60.3445 49.4667 54.4283 53.1514 46.0345 54.9686L76.3738 106H62.266L32.5335 55.8771H12.9646V106H0.373779V1.21143ZM31.4716 1.51429C25.606 1.51429 19.437 1.86762 12.9646 2.57429V54.3629H35.4157C49.6752 53.7571 56.8049 44.0657 56.8049 25.2886C56.8049 17.6162 54.6812 11.761 50.4337 7.72286C46.1862 3.58381 39.8655 1.51429 31.4716 1.51429Z" fill="white"/>
</svg>
