<svg width="77" height="107" viewBox="0 0 77 107" fill="none" xmlns="http://www.w3.org/2000/svg">
<path d="M3.3205 98.31C2.5955 91.6883 1.943 84.4383 1.363 76.56C0.831333 68.6333 0.4205 60.7308 0.1305 52.8525C-0.0145003 48.9858 -0.0386665 45.24 0.0580003 41.615C0.154667 37.99 0.372167 34.8 0.7105 32.045C4.6255 33.205 7.64633 33.7367 9.773 33.64C11.8997 33.495 13.2772 32.6733 13.9055 31.175C14.6305 29.435 14.1955 27.7675 12.6005 26.1725C11.0538 24.5292 7.6705 22.8133 2.4505 21.025C3.3205 18.8983 4.4805 16.7233 5.9305 14.5C7.42883 12.2767 8.9755 10.4883 10.5705 9.135C13.4705 13.0983 15.8147 15.6117 17.603 16.675C19.4397 17.69 21.1555 17.5933 22.7505 16.385C24.2972 15.2733 24.708 13.4125 23.983 10.8025C23.258 8.14417 21.8805 5.51 19.8505 2.90001C21.8322 2.03001 24.5147 1.32917 27.898 0.797501C31.2813 0.265832 34.2055 0 36.6705 0C43.3888 0 49.2372 0.724997 54.2155 2.175C59.1938 3.57666 63.3263 5.655 66.613 8.41C69.8997 11.1167 72.3405 14.4033 73.9355 18.27C75.5788 22.0883 76.4005 26.4383 76.4005 31.32C76.4005 36.685 75.3372 41.3975 73.2105 45.4575C71.0838 49.5175 68.1355 52.7075 64.3655 55.0275C60.5955 57.2992 56.2455 58.435 51.3155 58.435C47.1588 58.435 43.6547 57.71 40.803 56.26C37.9997 54.7617 35.873 52.7075 34.423 50.0975C33.0213 47.4875 32.3205 44.4667 32.3205 41.035C32.3205 36.1533 33.7705 32.2625 36.6705 29.3625C39.5705 26.4142 43.1955 24.94 47.5455 24.94C51.0738 24.94 53.853 25.81 55.883 27.55C57.9613 29.29 59.0005 31.2958 59.0005 33.5675C59.0005 34.8725 58.6622 35.9358 57.9855 36.7575C57.3572 37.5308 56.3905 37.9175 55.0855 37.9175C54.2155 37.9175 53.5388 37.7483 53.0555 37.41C52.6205 37.0233 52.2097 36.5883 51.823 36.105C51.4847 35.5733 51.0255 35.1383 50.4455 34.8C49.8655 34.4133 48.9955 34.22 47.8355 34.22C46.3372 34.22 45.2013 34.8 44.428 35.96C43.703 37.12 43.3405 38.4733 43.3405 40.02C43.3405 42.5333 44.138 44.6358 45.733 46.3275C47.328 48.0192 49.3822 48.865 51.8955 48.865C56.1005 48.865 59.4113 47.3183 61.828 44.225C64.293 41.0833 65.5255 37.0233 65.5255 32.045C65.5255 26.4383 64.003 21.895 60.958 18.415C57.9613 14.935 53.7322 13.195 48.2705 13.195C43.9205 13.195 40.0297 14.3067 36.598 16.53C33.2147 18.705 30.3388 21.895 27.9705 26.1C25.6505 30.305 23.9105 35.38 22.7505 41.325C21.7838 46.545 21.083 50.7017 20.648 53.795C20.2613 56.84 20.1405 59.1842 20.2855 60.8275C20.4788 62.4708 20.9138 63.7033 21.5905 64.525C22.2672 65.3467 23.1855 66.12 24.3455 66.845C25.2155 67.3283 26.2547 67.9083 27.463 68.585C28.6713 69.2133 30.0005 69.89 31.4505 70.615C31.9822 70.8083 32.5138 71.05 33.0455 71.34C33.6255 71.63 34.2055 71.8958 34.7855 72.1375C35.4622 72.4275 36.1388 72.7417 36.8155 73.08C37.5405 73.4183 38.2655 73.7567 38.9905 74.095C39.5705 74.3367 40.1263 74.6025 40.658 74.8925C41.238 75.1342 41.7938 75.3758 42.3255 75.6175C42.9538 75.9075 43.5338 76.1975 44.0655 76.4875C44.5972 76.7775 45.1288 77.0433 45.6605 77.285C46.0955 77.4783 46.5063 77.6717 46.893 77.865C47.328 78.0583 47.7388 78.2517 48.1255 78.445C48.5605 78.6383 48.9955 78.8317 49.4305 79.025C54.9405 81.6833 59.4597 83.9067 62.988 85.695C66.5163 87.4833 69.2472 89.1025 71.1805 90.5525C73.1138 91.9542 74.4672 93.38 75.2405 94.83C76.0138 96.2317 76.4005 97.875 76.4005 99.76C76.4005 101.403 75.8205 102.878 74.6605 104.183C73.5005 105.488 71.8572 106.14 69.7305 106.14C68.8122 106.14 67.773 105.971 66.613 105.632C65.5013 105.342 64.003 104.714 62.118 103.748C60.2813 102.781 57.8163 101.355 54.723 99.47C51.6297 97.585 47.6663 95.0717 42.833 91.93C38.048 88.7883 32.1272 84.8733 25.0705 80.185C22.4605 78.445 20.4305 77.8167 18.9805 78.3C17.5788 78.735 16.6605 80.0883 16.2255 82.36C15.5972 85.405 15.138 88.5225 14.848 91.7125C14.558 94.8542 14.1955 97.44 13.7605 99.47C13.2772 101.548 12.673 103.143 11.948 104.255C11.223 105.318 10.0872 105.85 8.5405 105.85C6.8005 105.85 5.568 105.222 4.843 103.965C4.118 102.708 3.6105 100.823 3.3205 98.31ZM9.8455 94.54C8.5405 94.54 7.5255 94.2258 6.8005 93.5975C6.12383 92.9208 5.7855 91.64 5.7855 89.755C5.7855 88.16 6.0755 87.0725 6.6555 86.4925C7.28383 85.9125 8.2505 85.695 9.5555 85.84L9.8455 94.54ZM5.4955 71.63C4.6255 71.5333 3.92467 71.2433 3.393 70.76C2.86133 70.2767 2.5955 69.2133 2.5955 67.57C2.5955 65.7333 2.86133 64.5492 3.393 64.0175C3.973 63.4858 5.01217 63.2683 6.5105 63.365L5.4955 71.63ZM57.9855 76.85C55.6655 76.85 53.8288 76.2458 52.4755 75.0375C51.1222 73.8292 50.4455 72.21 50.4455 70.18C50.4455 67.425 51.0497 65.395 52.258 64.09C53.4663 62.7367 55.2305 62.06 57.5505 62.06C60.1122 62.06 62.0455 62.6642 63.3505 63.8725C64.7038 65.0325 65.3805 66.845 65.3805 69.31C65.3805 71.6783 64.7522 73.5392 63.4955 74.8925C62.2872 76.1975 60.4505 76.85 57.9855 76.85Z" fill="white"/>
</svg>
