<svg width="95" height="106" viewBox="0 0 95 106" fill="none" xmlns="http://www.w3.org/2000/svg">
<path d="M0 4.9401V0.600098H46.81C57.66 0.600098 66.03 3.02843 71.92 7.8851C77.81 12.7418 80.755 19.2518 80.755 27.4151V30.9801C80.755 37.1801 79.05 42.4501 75.64 46.7901C72.23 51.1301 67.3217 54.2301 60.915 56.0901L80.29 92.9801C81.53 95.2534 82.46 96.9068 83.08 97.9401C83.7 98.9734 84.2683 99.6451 84.785 99.9551C85.405 100.162 86.2317 100.368 87.265 100.575L94.24 101.66V106H65.255L41.85 57.9501H30.535V92.9801C30.535 96.4934 30.69 98.6118 31 99.3351C31.31 99.9551 32.2917 100.368 33.945 100.575L42.47 101.66V106H0V101.66L8.525 100.575C10.1783 100.368 11.16 99.9551 11.47 99.3351C11.78 98.6118 11.935 96.4934 11.935 92.9801V13.6201C11.935 10.1068 11.78 8.04009 11.47 7.42009C11.16 6.69676 10.1783 6.23176 8.525 6.02509L0 4.9401ZM46.81 6.02509H30.535V52.5251H46.81C51.3567 52.5251 54.8183 51.1301 57.195 48.3401C59.675 45.4468 60.915 40.1768 60.915 32.5301V25.8651C60.915 18.2184 59.675 13.0001 57.195 10.2101C54.8183 7.42009 51.3567 6.02509 46.81 6.02509Z" fill="white"/>
</svg>
