<svg width="131" height="105" viewBox="0 0 131 105" fill="none" xmlns="http://www.w3.org/2000/svg">
    <path
        d="M62.7605 52.368C61.9401 52.368 61.2955 52.2506 60.8267 52.0159C59.7719 51.5465 59.2445 51.3118 59.2445 51.3118C59.2445 51.1945 59.7719 50.7837 60.8267 50.0796C61.6471 49.6102 62.5847 49.4342 63.6395 49.5516C64.8115 49.6689 65.6318 49.6689 66.1006 49.5516C68.9134 48.9648 72.3122 48.1433 76.297 47.0872C80.2818 46.031 84.9112 43.9187 90.1852 40.7502L97.0414 36.7016C97.6274 36.3495 98.0376 36.4082 98.272 36.8776C98.0376 36.995 97.9204 37.2883 97.9204 37.7578C98.7408 37.7578 99.2096 37.4644 99.3268 36.8776C99.5612 36.1735 99.7956 35.5281 100.03 34.9413H100.206L104.073 32.477C104.659 32.3596 105.187 32.4183 105.656 32.653C106.242 32.8877 106.769 32.829 107.238 32.477C107.003 32.0075 106.769 31.7142 106.535 31.5968C106.3 31.3621 106.417 31.0687 106.886 30.7167L107.589 30.1886C108.527 29.6018 109.347 29.1911 110.051 28.9564C110.871 28.6044 111.457 27.9589 111.809 27.0201C114.153 24.9078 116.145 22.7955 117.786 20.6832C119.427 18.5708 120.247 16.5759 120.247 14.6982C120.247 12.7033 119.134 11.0017 116.907 9.59346C114.797 8.06789 110.988 6.95306 105.48 6.24895L104.073 6.07292C103.253 5.95557 102.491 5.83822 101.788 5.72087C101.085 5.60352 100.382 5.36882 99.6784 5.01677C99.7956 5.48617 99.5612 5.72087 98.9752 5.72087C97.3344 5.60352 95.6936 5.54484 94.0528 5.54484C92.412 5.42749 90.8298 5.36882 89.3062 5.36882C86.7278 5.36882 84.3252 5.42749 82.0984 5.54484C79.9888 5.6622 78.4652 5.77955 77.5276 5.8969L71.7262 6.60101C71.023 6.3663 70.3198 6.48366 69.6166 6.95306H69.4408C68.6204 6.95306 67.8 7.07041 66.9796 7.30512C66.1592 7.42247 65.2803 7.59849 64.3427 7.83319C63.8739 7.95055 63.3464 8.0679 62.7605 8.18525C62.1745 8.18525 61.5885 8.3026 61.0025 8.5373L57.4865 9.24141C56.6661 9.82816 55.6113 10.1215 54.3221 10.1215H54.1463L50.8061 11.0017H50.6303C50.1615 11.0017 49.7513 10.767 49.3997 10.2976C49.0481 9.71081 48.8137 9.18273 48.6965 8.71333C48.5793 9.41743 48.4035 10.1802 48.1691 11.0017C47.9347 11.8231 47.5245 12.2339 46.9385 12.2339L42.0161 13.8181C41.5473 13.9355 41.0199 13.9941 40.4339 13.9941C39.8479 13.9941 39.2619 13.9941 38.6759 13.9941C38.0899 13.9941 37.6211 14.0528 37.2695 14.1702C36.9179 14.2875 36.6835 14.5809 36.5663 15.0503C36.5663 15.4023 36.3905 15.6957 36.0389 15.9304C35.5701 16.3998 34.9841 16.7519 34.2809 16.9866C33.5777 17.1039 32.9331 17.28 32.3471 17.5147H32.1713C31.9369 17.5147 31.5853 17.3973 31.1165 17.1626C30.7649 16.9279 30.4719 16.8692 30.2375 16.9866C30.1203 17.1039 30.0031 17.3973 29.8859 17.8667C29.7687 18.3361 29.5929 18.6295 29.3585 18.7469V18.9229C28.6553 19.1576 27.8935 19.451 27.0731 19.803C26.2527 20.1551 25.4909 20.5071 24.7877 20.8592C24.0845 21.2112 23.2641 21.622 22.3265 22.0914C21.5062 22.4434 20.803 22.6781 20.217 22.7955C19.9826 22.7955 19.8654 22.5608 19.8654 22.0914C19.9826 21.622 19.924 21.5046 19.6896 21.7393C18.9864 22.0914 18.2832 22.7368 17.58 23.6756C16.8768 24.6144 16.2322 25.2598 15.6462 25.6119C15.0602 26.0813 14.4156 26.316 13.7124 26.316C13.1264 26.316 12.5404 26.5507 11.9544 27.0201C11.6028 27.3722 11.2512 27.9589 10.8996 28.7804C10.6652 29.4845 10.3722 30.0126 10.0206 30.3646C9.08298 31.3034 8.14538 32.4183 7.20778 33.7091C7.09058 33.9438 6.91478 34.1785 6.68038 34.4132C6.44598 34.6479 6.32878 34.9413 6.32878 35.2934H6.15299C5.44979 36.7016 5.09819 38.0511 5.09819 39.342C5.09819 41.9237 6.03579 43.8013 7.91098 44.9749C9.90338 46.1484 12.1302 47.0285 14.5914 47.6153C15.0602 47.7326 15.4704 47.9086 15.822 48.1433C16.2908 48.378 16.7596 48.4367 17.2284 48.3194C17.6972 48.0847 18.1074 47.9673 18.459 47.9673C19.045 47.9673 19.5138 48.202 19.8654 48.6714L22.5023 49.1995C23.9087 49.5516 24.6119 49.9036 24.6119 50.2557C24.6119 50.4904 24.2603 50.7251 23.5571 50.9598C22.9711 51.0771 22.3851 51.1358 21.7992 51.1358C19.6896 51.1358 17.1112 50.7251 14.064 49.9036C11.0168 48.9648 8.26258 47.6153 5.80139 45.855C3.34019 44.0947 1.9338 41.8064 1.5822 38.9899C1.5822 38.8726 1.4064 38.5792 1.0548 38.1098C0.820398 37.6404 0.644598 37.2297 0.527398 36.8776C0.175799 35.8215 0 34.7653 0 33.7091C0 31.7142 0.410199 29.8365 1.2306 28.0763C2.16819 26.316 3.39879 24.6731 4.92239 23.1475C5.50839 22.5608 6.03579 22.15 6.50458 21.9153C7.09058 21.6806 7.73518 21.3286 8.43838 20.8592C9.14158 20.3898 9.49318 19.979 9.49318 19.627C9.49318 19.2749 9.84478 18.8642 10.548 18.3948C11.4856 17.808 12.7748 17.1039 14.4156 16.2825C16.1736 15.461 17.5214 14.8156 18.459 14.3462C19.1622 14.3462 19.8068 14.0528 20.3928 13.4661C22.7367 12.4099 25.1979 11.4711 27.7763 10.6496C30.3547 9.71081 32.9331 8.83068 35.5115 8.00922C35.9803 7.89187 36.3905 7.77452 36.7421 7.65717C37.0937 7.53981 37.4453 7.48114 37.7969 7.48114C38.2657 7.48114 38.7345 7.65717 39.2033 8.00922C39.2033 7.77452 39.1447 7.59849 39.0275 7.48114C39.0275 7.24644 39.1447 7.07041 39.3791 6.95306C42.3091 6.01425 45.1805 5.13411 47.9933 4.31266C50.9233 3.37385 53.7947 2.90444 56.6075 2.90444H56.7833C57.0177 2.90444 57.2521 2.84577 57.4865 2.72842C57.8381 2.61107 58.1311 2.55239 58.3655 2.55239H58.5413L59.7719 2.37636C60.4751 2.72842 61.1783 2.61106 61.8815 2.02431C65.0458 1.43755 67.9758 1.02682 70.6714 0.792122C73.367 0.440066 75.6524 0.264035 77.5276 0.264035H78.2308C78.8168 0.264035 79.2856 0.205362 79.6372 0.0880123H81.3952C81.7468 -0.0293374 82.0984 -0.0293374 82.45 0.0880123C82.9188 0.0880123 83.2704 0.0880123 83.5048 0.0880123H83.6806C85.087 0.0880123 86.552 0.146685 88.0756 0.264035C89.7164 0.264035 91.3572 0.264035 92.998 0.264035H93.1738C93.6426 0.264035 93.9942 0.440066 94.2286 0.792122C94.5802 1.02682 94.9904 0.909473 95.4592 0.440067C98.6236 0.557417 101.788 0.909472 104.952 1.49623C107.296 1.84828 109.992 2.55239 113.039 3.60855C116.204 4.66471 118.958 6.30763 121.302 8.5373C123.646 10.6496 124.818 13.6421 124.818 17.5147C124.818 19.3923 124.583 21.0939 124.115 22.6195C123.763 24.0277 123.06 25.3185 122.005 26.492C121.067 27.6655 119.954 28.8391 118.665 30.0126C118.313 30.3646 117.962 30.7754 117.61 31.2448C117.258 31.7142 116.848 32.1249 116.379 32.477C116.262 32.5943 116.028 32.7117 115.676 32.829C115.442 32.829 115.207 32.8877 114.973 33.005C114.739 33.2397 114.504 33.4158 114.27 33.5331C114.035 33.6505 113.742 33.8265 113.391 34.0612C109.523 36.6429 106.183 38.5792 103.37 39.8701C100.675 41.0436 97.1 42.3931 92.6464 43.9187C91.24 44.3881 90.2438 44.6815 89.6578 44.7988C89.0718 44.7988 88.603 44.9162 88.2514 45.1509C85.3214 45.9723 81.9812 47.1458 78.2308 48.6714C74.4804 50.197 71.2574 51.1945 68.5618 51.6639C68.3274 51.7812 67.5656 51.9572 66.2764 52.192C65.1044 52.3093 63.9324 52.368 62.7605 52.368ZM115.325 105C115.207 105 114.797 105 114.094 105C113.391 105 112.981 104.941 112.863 104.824C112.395 104.589 112.219 104.237 112.336 103.768C112.453 103.298 112.277 103.064 111.809 103.064C111.34 103.064 111.047 103.24 110.93 103.592C110.812 104.061 110.461 104.296 109.875 104.296H109.699C109.113 104.296 108.586 104.003 108.117 103.416C107.765 102.829 107.355 102.653 106.886 102.888C106.183 103.24 105.597 103.416 105.128 103.416C104.308 103.416 103.663 103.122 103.194 102.536C102.726 101.949 102.081 101.421 101.261 100.951C101.143 100.951 100.909 101.01 100.557 101.127C100.323 101.245 100.089 101.245 99.8542 101.127C99.737 101.01 98.7994 100.482 97.0414 99.5432C95.2834 98.7217 93.5254 97.8416 91.7674 96.9028C90.0094 95.964 88.9546 95.3772 88.603 95.1425C88.2514 94.321 87.8998 93.8516 87.5482 93.7343C87.3138 93.6169 86.7864 93.5583 85.966 93.5583C85.4972 93.2062 84.8526 92.7955 84.0322 92.3261C83.329 91.974 82.8602 91.5046 82.6258 90.9179C81.1022 90.3311 79.7544 89.627 78.5824 88.8055C77.4104 87.9841 76.1798 87.0453 74.8906 85.9891C74.6562 85.7544 74.3632 85.5784 74.0116 85.461C73.66 85.3437 73.367 85.1676 73.1326 84.9329L68.386 81.4124C68.1516 80.7083 67.2726 79.9455 65.749 79.1241C64.2255 78.1853 63.1707 77.3051 62.5847 76.4837C62.4675 76.3663 62.4089 76.249 62.4089 76.1316C62.4089 75.5448 62.1159 75.2515 61.5299 75.2515C61.1783 75.2515 60.8267 75.2515 60.4751 75.2515C60.1235 75.2515 59.9477 75.0168 59.9477 74.5474C59.5961 73.7259 58.7171 72.7871 57.3107 71.7309C55.9043 70.5574 54.6151 69.3839 53.4431 68.2104C52.2711 67.0369 51.8609 66.0394 52.2125 65.2179C51.7437 65.1006 51.2749 65.0419 50.8061 65.0419C50.3373 65.0419 49.9857 64.8659 49.7513 64.5138C49.2825 63.575 48.6965 62.8122 47.9933 62.2255C47.6417 61.9908 47.2901 61.6387 46.9385 61.1693L46.0595 62.9296C45.5907 63.6337 45.1219 64.4552 44.6531 65.394C44.1843 66.3328 43.6569 67.3303 43.0709 68.3864L41.4887 71.5549C41.3715 71.907 41.1957 72.083 40.9613 72.083C40.8441 71.9656 40.6683 71.907 40.4339 71.907C40.6683 72.3764 40.7855 72.7871 40.7855 73.1391C40.7855 74.078 40.2581 75.0754 39.2033 76.1316C37.6797 79.6521 36.2733 82.9966 34.9841 86.1651C33.6949 89.3336 32.6987 92.2674 31.9955 94.9665C31.7611 95.9053 31.4095 96.3747 30.9407 96.3747C30.1203 96.3747 29.7101 95.4946 29.7101 93.7343C29.7101 92.0914 30.3547 89.5096 31.6439 85.9891L31.4681 86.1651C31.3509 86.1651 30.9407 86.2825 30.2375 86.5172C29.5343 86.7519 29.0655 86.8106 28.8311 86.6932C27.3075 86.6932 26.5457 86.1651 26.5457 85.109C26.5457 82.2925 27.1317 79.3588 28.3037 76.3076L32.8745 64.3378C33.1089 63.9857 33.2261 63.6337 33.2261 63.2816C33.3433 62.9296 33.4605 62.5775 33.5777 62.2255L33.7535 62.0495V61.8734L34.4567 58.1769C34.6911 57.1207 34.8083 56.1819 34.8083 55.3604C34.9255 54.539 34.9841 53.5415 34.9841 52.368C34.9841 52.0159 35.1599 51.7812 35.5115 51.6639C35.5115 50.8424 35.5701 50.0796 35.6873 49.3755C35.8045 48.5541 35.8631 47.7326 35.8631 46.9111V46.031C35.7459 45.9137 35.6873 45.679 35.6873 45.3269C35.6873 45.0922 35.6287 44.8575 35.5115 44.6228C35.5115 44.3881 35.5115 44.1534 35.5115 43.9187C35.5115 43.8013 35.5115 43.7427 35.5115 43.7427C35.6287 43.6253 35.6873 43.508 35.6873 43.3906C35.9217 41.9824 36.3319 40.6915 36.9179 39.518C37.6211 38.3445 38.3829 38.0511 39.2033 38.6379C39.4377 38.7552 39.8479 39.4593 40.4339 40.7502C41.1371 42.0411 41.7231 42.9799 42.1919 43.5666C42.6607 44.7401 43.2467 45.855 43.9499 46.9111C44.6531 47.85 45.2391 48.9061 45.7079 50.0796C46.0595 50.6664 46.2353 51.1358 46.2353 51.4878C46.2353 51.7225 46.6455 51.9572 47.4659 52.192C50.8647 46.0897 54.2635 40.2808 57.6623 34.7653C61.1783 29.1324 64.4599 24.7904 67.5071 21.7393L68.0344 21.3873L68.5618 20.5071C68.5618 20.5071 68.679 20.4484 68.9134 20.3311C69.1478 20.2137 69.3236 20.2724 69.4408 20.5071C69.4408 20.6245 69.3236 20.8592 69.0892 21.2112C68.972 21.5633 68.9134 21.798 68.9134 21.9153C69.265 22.5021 69.6752 22.5608 70.144 22.0914C70.2612 21.8567 70.2612 21.3286 70.144 20.5071C70.0268 19.6857 70.0268 19.2749 70.144 19.2749C70.3784 19.1576 70.4956 19.1576 70.4956 19.2749C70.6128 19.3923 70.73 19.451 70.8472 19.451C71.0816 19.451 71.1988 19.2749 71.1988 18.9229C71.1988 18.5708 71.2574 18.3361 71.3746 18.2188C72.6638 17.7494 73.8358 17.5147 74.8906 17.5147C75.4766 17.5147 76.297 17.808 77.3518 18.3948C78.5238 18.9816 79.1098 19.803 79.1098 20.8592C79.1098 21.4459 78.8168 22.15 78.2308 22.9715C78.1136 23.0888 77.9964 23.3236 77.8792 23.6756C77.762 23.9103 77.5862 24.145 77.3518 24.3797C77.2346 24.4971 77.1174 24.5557 77.0002 24.5557C77.0002 24.4384 76.883 24.4384 76.6486 24.5557C76.5314 24.6731 76.3556 24.7318 76.1212 24.7318C76.004 24.6144 75.8282 24.5557 75.5938 24.5557C75.3594 24.5557 75.3008 24.7318 75.418 25.0838C75.6524 25.4359 75.711 25.6706 75.5938 25.7879C75.4766 25.9053 75.3594 25.9053 75.2422 25.7879C75.125 25.6706 74.9492 25.7293 74.7148 25.964C74.5976 26.0813 74.6562 26.1987 74.8906 26.316C75.2422 26.316 75.3008 26.4334 75.0664 26.6681C74.3632 27.3722 73.4842 28.135 72.4294 28.9564C71.4918 29.6605 70.5542 30.3646 69.6166 31.0687C69.4994 31.1861 69.3822 31.1861 69.265 31.0687C69.1478 30.834 69.0306 30.7754 68.9134 30.8927L67.6828 32.653C66.5108 33.8265 65.3389 35.0587 64.1669 36.3495C62.9949 37.6404 61.7643 39.1073 60.4751 40.7502C60.1235 41.4543 59.7133 42.0997 59.2445 42.6865C58.7757 43.2733 58.1311 43.508 57.3107 43.3906C57.3107 43.508 57.4279 43.684 57.6623 43.9187C57.8967 44.036 57.8967 44.2707 57.6623 44.6228C55.0839 48.1433 52.6813 51.7812 50.4545 55.5365L54.1463 60.1132C54.4979 60.5826 54.6737 61.1106 54.6737 61.6974C54.6737 62.1668 54.7909 62.4602 55.0253 62.5775C55.2597 62.5775 55.4355 62.5189 55.5527 62.4015C55.7871 62.2842 55.9629 62.2255 56.0801 62.2255C56.4317 62.2255 56.7247 62.5189 56.9591 63.1056C57.3107 63.575 57.6623 63.9857 58.0139 64.3378C58.4827 64.8072 58.9515 65.2766 59.4203 65.746C60.0063 66.2154 60.5923 66.7435 61.1783 67.3303V67.5063C61.6471 67.8583 62.4089 68.5038 63.4637 69.4426C64.5184 70.3814 65.5146 71.3202 66.4522 72.259C67.3898 73.0805 67.9172 73.7259 68.0344 74.1953C68.2688 74.6647 68.6204 74.9581 69.0892 75.0754C69.558 75.1928 69.9682 75.3688 70.3198 75.6035C71.2574 76.3076 72.195 77.0117 73.1326 77.7158C74.1874 78.4199 75.1836 79.1827 76.1212 80.0042C76.4728 80.2389 76.59 80.4736 76.4728 80.7083C76.4728 80.943 76.5314 81.1777 76.6486 81.4124C76.883 81.5298 77.2932 81.7058 77.8792 81.9405C78.5824 82.0578 79.1098 82.2339 79.4614 82.4686C82.157 84.2288 84.8526 85.9304 87.5482 87.5733C90.2438 89.3336 93.0566 90.9765 95.9866 92.5021C99.0338 94.0277 102.14 95.3772 105.304 96.5507C108.468 97.7242 111.809 98.311 115.325 98.311C118.137 98.311 120.833 97.7829 123.411 96.7267C126.107 95.6706 127.455 93.7343 127.455 90.9179C127.455 89.979 127.279 88.9816 126.927 87.9254C126.81 87.3386 126.576 86.6932 126.224 85.9891C125.99 85.285 125.58 84.7569 124.994 84.4049C124.642 83.7008 123.997 83.2313 123.06 82.9966C122.474 82.4099 121.946 81.8231 121.478 81.2364C121.009 80.5323 120.306 80.2389 119.368 80.3562C119.016 80.0042 118.841 79.6521 118.841 79.3001C118.841 78.8307 119.016 78.4786 119.368 78.2439C119.837 77.8919 120.364 77.8332 120.95 78.0679C121.771 78.5373 122.415 79.1827 122.884 80.0042C123.47 80.7083 124.232 81.119 125.169 81.2364L126.048 82.1165C126.4 82.7033 126.752 83.1727 127.103 83.5247C127.572 83.8768 127.982 84.3462 128.334 84.9329C128.685 85.4023 129.037 86.0478 129.389 86.8692C129.857 87.808 130.15 88.5708 130.268 89.1576C130.502 89.627 130.561 90.0964 130.443 90.5658C130.443 91.0352 130.619 91.5633 130.971 92.15C131.205 95.7879 130.033 98.7217 127.455 100.951C124.876 103.298 121.888 104.589 118.489 104.824C118.137 104.589 117.786 104.413 117.434 104.296C117.2 104.179 116.965 104.12 116.731 104.12C116.379 104.12 115.911 104.413 115.325 105ZM33.9293 80.3562C34.1637 80.4736 34.2809 80.4736 34.2809 80.3562C34.3981 80.1215 34.4567 80.0042 34.4567 80.0042C34.6911 79.6521 34.8083 79.3001 34.8083 78.948C34.8083 78.4786 34.8669 78.0679 34.9841 77.7158C37.0937 72.435 39.7893 66.6848 43.0709 60.4652C43.3053 59.9958 43.5397 59.8785 43.7741 60.1132C44.1257 60.2305 44.3601 60.1718 44.4773 59.9371C44.7117 59.7024 44.7703 59.409 44.6531 59.057C44.6531 58.7049 44.6531 58.4116 44.6531 58.1769C44.5359 57.9422 44.3601 57.7661 44.1257 57.6488C43.8913 57.5314 43.7155 57.3554 43.5983 57.1207C43.1295 55.8298 42.4849 55.0084 41.6645 54.6563C40.9613 54.1869 40.4339 53.4828 40.0823 52.544C39.6135 51.4878 39.1447 50.7251 38.6759 50.2557C38.3243 49.6689 37.8555 48.9648 37.2695 48.1433L36.7421 54.1282C36.6249 55.3018 36.4491 56.6513 36.2147 58.1769C36.0975 59.7024 35.8045 61.1106 35.3357 62.4015C35.2185 62.7536 35.1599 63.2816 35.1599 63.9858V65.922C35.1599 66.1567 35.1013 66.4501 34.9841 66.8022C34.9841 67.1542 34.9841 67.5063 34.9841 67.8583L34.6325 71.3789C34.5153 72.5524 34.3395 73.7846 34.1051 75.0754C33.8707 76.2489 33.7535 77.3638 33.7535 78.42C33.7535 79.3588 33.8121 80.0042 33.9293 80.3562Z"
        fill="white" />
</svg>