<svg width="96" height="109" viewBox="0 0 96 109" fill="none" xmlns="http://www.w3.org/2000/svg">
<path d="M0 104.785V100.425C1.35143 100.425 3.28205 100.28 5.79185 99.9893C8.30166 99.6987 10.6184 99.0689 12.7421 98.1V8.42933C10.6184 7.75111 8.34992 7.412 5.93665 7.412C3.61991 7.412 1.78582 7.46044 0.43439 7.55733L0 3.19733C6.37104 2.42222 12.7421 1.69555 19.1131 1.01733C25.5807 0.33911 31.5173 0 36.9231 0C43.3906 0 49.2308 0.77511 54.4434 2.32533C59.6561 3.77866 63.8069 6.34622 66.8959 10.028C69.9849 13.7098 71.5294 18.748 71.5294 25.1427C71.5294 28.34 70.8054 31.6827 69.3575 35.1707C68.006 38.5618 65.6893 41.856 62.4072 45.0533C59.2217 48.2507 54.8778 51.012 49.3756 53.3373C51.1131 56.4378 53.1885 59.9258 55.6018 63.8013C58.0151 67.6769 60.5732 71.5524 63.276 75.428C65.9789 79.3036 68.5852 82.8884 71.095 86.1827C73.5083 89.1862 75.7768 91.8022 77.9004 94.0307C80.1207 96.2591 82.6305 98.1969 85.4299 99.844C88.3258 101.491 91.8492 103.138 96 104.785L94.6968 109C88.0362 108.516 82.6305 107.692 78.4796 106.529C74.4253 105.367 70.9985 103.768 68.1991 101.733C65.4962 99.6018 62.8416 97.0827 60.2353 94.176C58.6908 92.432 56.905 89.9613 54.8778 86.764C52.8507 83.5667 50.7753 80.1271 48.6516 76.4453C46.5279 72.6667 44.4525 69.0333 42.4253 65.5453C40.4947 62.0573 38.8537 59.1507 37.5023 56.8253C35.6682 57.2129 33.7376 57.6004 31.7104 57.988C29.6833 58.2787 27.5596 58.5209 25.3394 58.7147V98.1C27.5596 99.0689 29.9728 99.6987 32.5792 99.9893C35.1855 100.28 37.2127 100.425 38.6606 100.425V104.785H0ZM25.3394 53.4827C32.7722 53.192 38.9502 51.7871 43.8733 49.268C48.8929 46.7489 52.6576 43.6484 55.1674 39.9667C57.6772 36.2849 58.9321 32.5062 58.9321 28.6307C58.9321 22.9142 57.4842 18.4089 54.5882 15.1147C51.6923 11.7236 47.6863 9.44666 42.5701 8.284C37.5505 7.02444 31.8069 6.83066 25.3394 7.70266V53.4827Z" fill="white"/>
</svg>
