<svg width="84" height="106" viewBox="0 0 84 106" fill="none" xmlns="http://www.w3.org/2000/svg">
<path d="M0 106V0.54541H41.6051C49.5691 0.54541 56.366 1.97001 61.9957 4.8192C67.6598 7.63407 71.9679 11.6332 74.9201 16.8167C77.9066 21.9659 79.3999 28.0247 79.3999 34.9932C79.3999 41.996 77.8894 48.0206 74.8686 53.0667C71.8478 58.0786 67.471 61.9233 61.7383 64.6008C56.0399 67.2784 49.14 68.6171 41.0387 68.6171H13.1818V50.6981H37.4343C41.6909 50.6981 45.2267 50.1145 48.0415 48.9474C50.8564 47.7803 52.9504 46.0296 54.3235 43.6953C55.7309 41.361 56.4347 38.4603 56.4347 34.9932C56.4347 31.4918 55.7309 28.5396 54.3235 26.1367C52.9504 23.7337 50.8393 21.9144 47.9901 20.6786C45.1752 19.4085 41.6223 18.7734 37.3313 18.7734H22.2958V106H0ZM56.9496 58.0099L83.1587 106H58.5458L32.9031 58.0099H56.9496Z" fill="white"/>
</svg>
