<svg width="36" height="36" viewBox="0 0 36 36" fill="none" xmlns="http://www.w3.org/2000/svg">
    <path
        d="M34.989 30.1106C33.962 29.0835 24.7293 21.1239 19.808 18C24.7293 14.8761 33.962 6.91649 34.989 5.88945C36.337 4.54146 36.337 2.35899 34.989 1.011C33.641 -0.336998 31.4585 -0.336998 30.1106 1.011C29.0835 2.03804 21.1239 11.2707 18 16.192C14.8761 11.2707 6.91649 2.03804 5.88945 1.011C4.54146 -0.336998 2.35899 -0.336998 1.011 1.011C-0.336998 2.35899 -0.336998 4.54146 1.011 5.88945C2.03804 6.91649 11.2707 14.8761 16.192 18C11.2707 21.1239 2.03804 29.0835 1.011 30.1106C-0.336998 31.4585 -0.336998 33.641 1.011 34.989C2.35899 36.337 4.54146 36.337 5.88945 34.989C6.91649 33.962 14.8761 24.7293 18 19.808C21.1239 24.7293 29.0835 33.962 30.1106 34.989C31.4585 36.337 33.641 36.337 34.989 34.989C36.337 33.641 36.337 31.4585 34.989 30.1106Z"
        fill="white" />
</svg>