<svg width="166" height="166" viewBox="0 0 166 166" fill="none" xmlns="http://www.w3.org/2000/svg">
    <path d="M22.7212 138.797C28.9047 102.263 43.8724 20.4283 57.8475 19.0346C71.8226 17.6409 78.0096 146.979 78.0096 146.979" stroke="#00CCFF" stroke-width="6" stroke-linecap="round" stroke-linejoin="round"/>
    <path d="M22.7212 81.9074C38.8854 74.5239 88.1874 59.5527 106.952 59.5527M119.012 84.3213C107.952 67.7352 94.7756 76.7199 94.1807 93.4859C93.579 110.252 110.373 109.629 116.56 97.8538" stroke="#00CCFF" stroke-width="6" stroke-linecap="round" stroke-linejoin="round"/>
    <path d="M121.125 75.5198C117.134 90.4909 109.546 128.218 122.923 130.812C136.3 133.405 143.282 103.166 143.282 103.166M139.077 45.3735C139.356 44.4984 139.341 43.5561 139.036 42.6899C138.73 41.8238 138.15 41.0811 137.383 40.575C136.617 40.0688 135.706 39.8269 134.79 39.8859C133.873 39.9449 133.001 40.3016 132.305 40.9018C132.073 39.8696 131.461 38.9627 130.59 38.3618C129.719 37.7609 128.654 37.5101 127.606 37.6592C126.559 37.8084 125.606 38.3466 124.937 39.1667C124.269 39.9867 123.934 41.0285 123.999 42.0846C124.092 46.3245 128.588 52.4008 128.588 52.4008C128.588 52.4008 135.788 50.1079 138.344 46.7222C138.666 46.3303 138.911 45.8807 139.077 45.3735Z" stroke="#00CCFF" stroke-width="6" stroke-linecap="round" stroke-linejoin="round"/>
    </svg>
    