<svg width="124" height="124" viewBox="0 0 124 124" fill="none" xmlns="http://www.w3.org/2000/svg">
    <path
        d="M48.4286 34.4674C49.0508 34.4674 49.3631 34.1042 49.4671 33.5352C51.2319 25.2316 51.1278 24.9194 59.7946 23.1546C60.4168 23.0505 60.7799 22.6896 60.7799 22.1161C60.7799 21.4939 60.4168 21.1307 59.7946 21.0267C51.1278 19.2619 51.2319 18.9519 49.4671 10.6992C49.3631 10.1279 49.0508 9.71387 48.4286 9.71387C47.8064 9.71387 47.4942 10.1279 47.3392 10.6992C45.6253 18.9519 45.7294 19.2619 37.0118 21.0267C36.4405 21.1307 36.0264 21.4939 36.0264 22.1161C36.0264 22.6874 36.4405 23.0505 37.0118 23.1546C45.7294 24.9194 45.6253 25.2316 47.3392 33.5352C47.4942 34.1042 47.8042 34.4674 48.4286 34.4674ZM91.2972 52.7884C92.0235 52.7884 92.4376 52.3212 92.5416 51.6458C94.3574 41.7856 94.4105 41.1634 104.84 39.3454C105.515 39.2436 106.036 38.7764 106.036 38.0501C106.036 37.3216 105.515 36.9075 104.84 36.7525C94.4105 34.9877 94.3574 34.3655 92.5416 24.5031C92.4376 23.8299 92.0235 23.3096 91.2972 23.3096C90.5709 23.3096 90.1015 23.8299 89.9996 24.5053C88.2349 34.3655 88.1839 34.9877 77.7502 36.7503C77.0239 36.9075 76.5567 37.3216 76.5567 38.0501C76.5567 38.7786 77.0239 39.2436 77.7524 39.3454C88.1817 41.1611 88.2349 41.7856 89.9974 51.6458C90.1015 52.3212 90.5687 52.7884 91.2972 52.7884ZM19.9883 67.6817C20.7168 67.6817 21.1309 67.1635 21.235 66.4881C23.0507 56.6279 23.1038 56.0057 33.5353 54.2432C34.2085 54.0859 34.7288 53.6696 34.7288 52.9434C34.7288 52.2171 34.2085 51.7499 33.5331 51.6458C23.1038 49.8301 23.0507 49.2079 21.235 39.3454C21.1309 38.6723 20.7146 38.2051 19.9883 38.2051C19.2621 38.2051 18.7948 38.6701 18.693 39.3454C16.8773 49.2079 16.8773 49.8301 6.44356 51.6458C5.71728 51.7499 5.25006 52.2171 5.25006 52.9434C5.25006 53.6696 5.71728 54.0859 6.44578 54.2409C16.8751 56.0057 16.8751 56.6279 18.6908 66.4881C18.7948 67.1635 19.2621 67.6817 19.9883 67.6817ZM108.577 112.058C110.809 114.288 114.545 114.288 116.571 112.058C118.75 109.773 118.75 106.243 116.571 104.065L67.2678 54.5532L63.1069 50.9279L59.2742 54.5532L55.3569 58.6779C55.3569 58.6779 58.3896 61.6931 59.2742 62.5999L108.577 112.058ZM78.4256 76.4015L63.2201 61.1451C62.849 60.7731 60.8926 58.6779 60.8926 58.6779L61.9998 57.5708L63.1069 56.4636L65.7621 58.6518L81.0185 73.9082L78.4256 76.4015ZM44.64 112.884C45.5744 112.884 46.2498 112.209 46.3538 111.223C48.0655 97.3664 48.7408 97.0032 62.806 94.7181C63.9464 94.5121 64.6217 93.9918 64.6217 92.9533C64.6217 91.9679 63.9464 91.3457 63.0119 91.1907C48.8449 88.4893 48.0655 88.5424 46.3538 74.6876C46.2498 73.7001 45.5744 73.0269 44.64 73.0269C43.6546 73.0269 42.9793 73.7001 42.8752 74.6345C41.0595 88.6997 40.5413 89.1669 26.2171 91.1907C25.2827 91.2948 24.6073 91.9679 24.6073 92.9555C24.6073 93.9409 25.2827 94.5121 26.2171 94.7181C40.5413 97.4682 41.0086 97.4682 42.8752 111.325C42.9151 111.761 43.1201 112.165 43.4482 112.454C43.7763 112.744 44.2027 112.899 44.64 112.884Z"
        fill="#07FFF7" />
</svg>
    