<?xml version="1.0" encoding="UTF-8"?>
<svg id="Layer_1" xmlns="http://www.w3.org/2000/svg" version="1.1" viewBox="0 0 518.7 318.8">
  <!-- Generator: Adobe Illustrator 29.3.1, SVG Export Plug-In . SVG Version: 2.1.0 Build 151)  -->
  <defs>
    <style>
      .st0 {
        fill: #ffffff;
        fill-rule: evenodd;
      }
    </style>
  </defs>
  <path class="st0" d="M413,306.3h4.1c0,.8,0,1.4.3,1.6.2.3.5.4,1,.4s.7,0,.9-.3c.2-.2.3-.5.3-.9v-1c0-.7-.8-1.2-2.3-1.5-.6-.1-1-.2-1.4-.3-1.2-.3-1.9-.6-2.3-1-.4-.4-.5-1.1-.5-2v-1.8c0-1.5.3-2.6,1-3.3.7-.7,1.8-1,3.4-1h2.1c1.5,0,2.5.3,3.1.8.6.5.9,1.5.9,2.9v1.1h-4v-.9c0-.4,0-.7-.3-.8-.2-.1-.5-.2-.9-.2s-.7,0-.9.3c-.2.2-.3.4-.3.7v.9c0,.6.6,1,1.7,1.2.6.1,1.2.2,1.6.4,1.3.2,2.1.6,2.6,1.1.5.5.7,1.3.7,2.4v1.9c0,1.7-.4,2.9-1.1,3.5-.7.6-2.1,1-4,1h-1.2c-1.7,0-2.9-.3-3.5-.8-.6-.6-1-1.6-1-3.1v-1.2ZM399.9,311.2v-15.7h4.2v1.7c.4-.7.9-1.2,1.4-1.5.5-.3,1.2-.5,1.9-.5s1.6.2,2,.7c.4.5.6,1.3.6,2.5v3.4h-3.8v-1.6c0-.6,0-.9-.2-1.1-.1-.2-.4-.3-.7-.3s-.6,0-.7.3c-.1.2-.2.6-.2,1.1v10.9h-4.5ZM390.9,311.2v-4.9h4.5v4.9h-4.5ZM375,311.2v-15.7h4.2v2c.5-.8,1-1.4,1.6-1.8.6-.4,1.3-.5,2.2-.5s2.1.3,2.6,1c.5.7.7,1.9.7,3.8v11.2h-4.5v-10.9c0-.6,0-.9-.2-1.1-.2-.2-.5-.3-.9-.3s-.7.1-.9.3c-.2.2-.2.6-.2,1.1v10.9h-4.5ZM366.3,311.2v-1.3c-.3.6-.8.9-1.3,1.2-.5.2-1.2.4-2.1.4-1.3,0-2.2-.3-2.8-.9-.5-.6-.8-1.7-.8-3.3v-1.9c0-1.3.3-2.3.9-2.9.6-.6,1.5-.9,2.8-.9s1.1,0,1.6.2c.5.2,1,.4,1.4.7v-2.3c0-.6,0-1-.2-1.3-.1-.2-.4-.3-.9-.3s-.7.1-.9.3c-.1.2-.2.6-.2,1.3h-4v-1.1c0-1.4.3-2.4,1-2.9.7-.5,2.1-.8,4.3-.8s3.6.3,4.3.8c.7.5,1,1.5,1,2.9v12.2h-4.3ZM366.1,307v-1.7c0-.3,0-.6-.3-.8-.2-.2-.5-.3-.8-.3s-.6,0-.8.3-.3.4-.3.8v1.7c0,.3,0,.6.3.8.2.2.5.3.8.3s.6,0,.8-.3c.2-.2.3-.5.3-.8ZM345.3,311.2v-22.6h4.4v13.2l2.4-6.3h4.2l-2.5,6.7,3.3,9h-4.7l-2.7-8.2v8.2h-4.4ZM340.8,295.5v16.9c0,1.7-.3,2.9-.9,3.6-.6.7-1.6,1-3.1,1s-.5,0-1.1,0c-.4,0-.6,0-.8,0v-3.5c.6,0,1-.2,1.1-.4.2-.2.3-.8.3-1.8v-15.6h4.6ZM336.2,292.2v-3.6h4.6v3.6h-4.6ZM331.6,311.2h-4.6v-22.6h4.6v22.6ZM322.6,311.2h-4.5v-15.7h4.5v15.7ZM318,292.2v-3.6h4.5v3.6h-4.5ZM303.2,306.3h4.1c0,.8,0,1.4.3,1.6.2.3.5.4,1,.4s.7,0,.9-.3c.2-.2.3-.5.3-.9v-1c0-.7-.8-1.2-2.3-1.5-.6-.1-1-.2-1.4-.3-1.2-.3-1.9-.6-2.3-1-.4-.4-.5-1.1-.5-2v-1.8c0-1.5.3-2.6,1-3.3.7-.7,1.8-1,3.4-1h2.1c1.5,0,2.5.3,3.1.8.6.5.9,1.5.9,2.9v1.1h-4v-.9c0-.4,0-.7-.3-.8-.2-.1-.5-.2-.9-.2s-.7,0-.9.3c-.2.2-.3.4-.3.7v.9c0,.6.6,1,1.7,1.2.6.1,1.2.2,1.6.4,1.3.2,2.1.6,2.6,1.1.5.5.7,1.3.7,2.4v1.9c0,1.7-.4,2.9-1.1,3.5-.7.6-2.1,1-4,1h-1.2c-1.7,0-2.9-.3-3.5-.8-.6-.6-1-1.6-1-3.1v-1.2ZM287.7,301.4c0-2.4.4-4,1.2-4.9.8-.9,2.4-1.3,4.7-1.3s3.9.4,4.7,1.3c.8.9,1.2,2.5,1.2,4.9v3.1h-7.2v2c0,.6,0,1.1.3,1.3.2.2.5.3,1.1.3s.9-.1,1.1-.3c.2-.2.3-.6.3-1.2v-.3h4.5v1c0,1.6-.4,2.8-1.3,3.4-.8.6-2.5.9-5,.9s-3.6-.4-4.4-1.3c-.8-.9-1.2-2.5-1.2-4.8v-3.9ZM292.4,299.9v1.5h2.9v-1.5c0-.7,0-1.1-.3-1.3-.2-.2-.6-.3-1.2-.3s-1,.1-1.2.3c-.2.2-.3.6-.3,1.3ZM283.6,295.5v16.9c0,1.7-.3,2.9-.9,3.6-.6.7-1.6,1-3.1,1s-.5,0-1.1,0c-.4,0-.6,0-.8,0v-3.5c.6,0,1-.2,1.1-.4.2-.2.3-.8.3-1.8v-15.6h4.6ZM279.1,292.2v-3.6h4.6v3.6h-4.6ZM263.2,311.2v-15.7h4.2v2c.5-.8,1-1.4,1.6-1.8.6-.4,1.3-.5,2.2-.5s2.1.3,2.6,1c.5.7.7,1.9.7,3.8v11.2h-4.5v-10.9c0-.6,0-.9-.2-1.1-.2-.2-.5-.3-.9-.3s-.7.1-.9.3c-.2.2-.2.6-.2,1.1v10.9h-4.5ZM247.4,301.4c0-2.4.4-4,1.2-4.9.8-.9,2.4-1.3,4.7-1.3s3.9.4,4.7,1.3c.8.9,1.2,2.5,1.2,4.9v3.1h-7.2v2c0,.6,0,1.1.3,1.3.2.2.5.3,1.1.3s.9-.1,1.1-.3c.2-.2.3-.6.3-1.2v-.3h4.5v1c0,1.6-.4,2.8-1.3,3.4-.8.6-2.5.9-5,.9s-3.6-.4-4.4-1.3c-.8-.9-1.2-2.5-1.2-4.8v-3.9ZM252,299.9v1.5h2.9v-1.5c0-.7,0-1.1-.3-1.3-.2-.2-.6-.3-1.2-.3s-1,.1-1.2.3c-.2.2-.3.6-.3,1.3ZM234.5,311.2v-3.4l4.6-8.8h-4.2v-3.4h8.8v3.6l-4.6,8.6h4.8v3.4h-9.4ZM230.8,295.5v15.7h-4.3v-2c-.4.8-1,1.4-1.6,1.7-.6.4-1.3.5-2.2.5s-2.1-.3-2.6-1c-.5-.7-.7-1.9-.7-3.8v-11.2h4.6v10.9c0,.6,0,.9.2,1.1.2.2.4.3.9.3s.7-.1.9-.3c.2-.2.2-.6.2-1.1v-10.9h4.6ZM206.1,311.2v-15.7h4.2v1.7c.4-.7.9-1.2,1.4-1.5.5-.3,1.2-.5,1.9-.5s1.6.2,2,.7c.4.5.6,1.3.6,2.5v3.4h-3.8v-1.6c0-.6,0-.9-.2-1.1-.1-.2-.4-.3-.7-.3s-.6,0-.7.3c-.1.2-.2.6-.2,1.1v10.9h-4.5ZM194.8,300.3v6.1c0,.6,0,1.1.2,1.3s.4.3.9.3.8-.1.9-.3c.2-.2.2-.6.2-1.2v-6.1c0-.6,0-1-.2-1.3-.2-.2-.5-.3-.9-.3s-.7.1-.9.3c-.2.2-.2.6-.2,1.3ZM201.6,288.6v22.6h-4.3v-2c-.5.8-1.1,1.4-1.7,1.7-.6.3-1.3.5-2.1.5-1.2,0-2.1-.4-2.6-1.1-.5-.8-.8-2.1-.8-4v-6c0-1.9.3-3.2.8-3.9.5-.8,1.4-1.1,2.7-1.1s1.5.2,2.1.5c.6.3,1,.8,1.4,1.4v-8.5h4.5ZM185.9,295.5v15.7h-4.3v-2c-.4.8-1,1.4-1.6,1.7-.6.4-1.3.5-2.2.5s-2.1-.3-2.6-1c-.5-.7-.7-1.9-.7-3.8v-11.2h4.6v10.9c0,.6,0,.9.2,1.1.2.2.4.3.9.3s.7-.1.9-.3c.2-.2.2-.6.2-1.1v-10.9h4.6ZM165.5,311.2v-4.9h4.5v4.9h-4.5ZM155,295.5l1.6,12.3,1.5-12.3h4.4l-2.4,15.7h-6.3l-1.7-12.5-1.7,12.5h-6.3l-2.4-15.7h4.4l1.5,12.3,1.6-12.3h5.9ZM131.6,295.5l1.6,12.3,1.5-12.3h4.4l-2.4,15.7h-6.3l-1.7-12.5-1.7,12.5h-6.3l-2.4-15.7h4.4l1.5,12.3,1.6-12.3h5.9ZM108.2,295.5l1.6,12.3,1.5-12.3h4.4l-2.4,15.7h-6.3l-1.7-12.5-1.7,12.5h-6.3l-2.4-15.7h4.4l1.5,12.3,1.6-12.3h5.9ZM53.4,85.9l2-1.8,6.8,3.4-1.4,2.8c-1.5-.5-2.7-.8-3.6-.9-.9,0-1.7,0-2.6.4-.8.4-1.8,1-2.9,2l-7.8,7.3c-1.1,1-1.8,1.9-2.2,2.7-.4.8-.6,1.7-.5,2.6,0,.9.3,2.1.7,3.6l-2.9,1.1-2.9-7.1,1.8-1.7c.2-2.2-.7-4.4-2.6-6.5l-5.9-6.3-.7-.7c-.6-.6-1.1-1.1-1.6-1.4-.4-.3-.9-.4-1.5-.3-.5,0-1.2.4-1.9,1l-2.2-2.3,18.2-17,2.2,2.3c-.7.8-1,1.4-1.1,2,0,.6,0,1.2.4,1.7.3.5.9,1.2,1.7,2l10.5,11.1ZM48.3,90.6l-13.8-14.7-5.7,5.3,10,11.8c.6.7,1,1.4,1.4,2.2.4.8.6,1.6.7,2.2l7.4-6.9ZM58.4,53.3c1.4-1,2.7-1.7,4-2.2,1.2-.5,2.5-.7,3.8-.5,1,.1,2,.5,2.9,1,.9.6,1.7,1.3,2.3,2.2.7,1,1.2,2.2,1.4,3.3.2,1.2.2,2.3-.2,3.4-.7,1.8-2.4,3.6-5,5.4l-4,2.7,1.6,2.3c.7,1,1.2,1.7,1.7,2.1.5.4,1.1.7,1.7.6.6,0,1.4-.3,2.2-.8l1.8,2.7-11.2,7.7-1.8-2.7c1.1-.8,1.6-1.6,1.5-2.3,0-.7-.5-1.6-1.2-2.8l-.5-.7-5.8-8.5-.5-.7c-.8-1.1-1.5-1.8-2.1-2.1-.7-.3-1.6-.1-2.7.6l-1.8-2.7,12-8.2ZM61.7,65.9l1.5-1c1.7-1.2,2.8-2.4,3.1-3.6.4-1.3.1-2.5-.6-3.6-.3-.5-.7-.9-1.1-1.1-.9-.6-1.8-.8-2.8-.7-1,.1-2,.5-2.9,1.1-.7.5-1.1.9-1.3,1.3-.2.4-.2.9,0,1.3.2.4.5,1,.9,1.7l3.2,4.7ZM94.8,56.1c0,3.3-.2,5.6-.8,6.8-.5,1.2-1.5,2.2-3,3-.6.3-1.1.5-1.5.6-.8.2-1.6.2-2.3-.2-.8-.3-1.3-.9-1.7-1.5-.4-.8-.4-1.7,0-2.6.3-.6.7-1,1.2-1.3.6-.3,1.2-.4,1.9-.3.7.1,1.2.4,1.6.7,0,0,.1,0,.2,0,0,0,.1-.1.2-.2.5-.8.7-1.9.7-3.3l-13.5-10.3c-1.1-.9-2.5-.9-4.2-.2l-1.4-2.7,12.3-6.3,1.4,2.7c-.7.4-1.2.7-1.5.9-.3.2-.4.5-.5.8,0,.2,0,.4.2.6.2.3.5.8,1.1,1.3l6.1,5.5-.3-9.1c0-.7,0-1.2-.2-1.5,0-.2-.2-.3-.4-.3-.4-.2-1.1,0-2.3.7l-1.4-2.7,9.1-4.6,1.4,2.7c-1.1.8-1.8,1.6-2.3,2.4-.4.8-.6,1.7-.6,3l.4,15.5ZM138.3,45.7l-12.5,4.3-1-3c.9-.5,1.5-.9,1.8-1.5.3-.5.4-1.1.3-1.7,0-.6-.3-1.5-.7-2.6l-.7-2.1-3.8-1.3-1.6,6.9c-.3,1.3-.3,2.1-.1,2.6,0,.3.3.5.5.6.3.2,1.1.2,2.3-.1l1,3-13.2,4.5-1.1-3c1-.5,1.7-1.1,2.2-1.9.7-1.3,1.2-2.7,1.4-4l2.4-10.9-4-1.7c-1.3-.5-2.4-.8-3.4-1-1-.1-2.3-.1-3.8,0l-1.1-3,11.8-4.1,1,3c-1.4.5-2,1-1.9,1.4.2.7,1.1,1.3,2.5,1.8l7.2,2.9-1.9-5.4c-.3-.8-.7-1.3-1.4-1.5-.6-.2-1.4-.1-2.4.1l-1-3,12.5-4.3,1,3c-.9.4-1.6.9-2,1.4-.4.5-.5,1.2-.2,2l1.9,5.4,3.9-6.7c.8-1.3,1.1-2.3.9-3-.2-.4-1-.4-2.4,0l-1-3,11.8-4.1,1.1,3c-.9.6-1.6,1.1-2.1,1.6-.6.5-1.1,1-1.5,1.6-.5.6-.9,1.3-1.4,2.1l-2.1,3.8,8.6,7.1c1.1,1,2.3,1.7,3.7,2.2.8.3,1.8.3,2.9.1l1.1,3-13.2,4.5-1-3c1.1-.5,1.7-.9,1.9-1.3.1-.3.1-.5,0-.8-.2-.5-.7-1.1-1.7-1.9l-5.5-4.4-2.2,3.4.7,2.1c.4,1.1.7,1.9,1,2.4.3.5.7.9,1.3,1.2.6.2,1.3.3,2.3,0l1,3ZM157.3,40.2l-.7-3.1c1.3-.4,2.1-.9,2.3-1.6.2-.7.2-1.7,0-3l-.2-.8-2.1-10.1-.2-.8c-.3-1.3-.7-2.3-1.2-2.8-.5-.5-1.4-.7-2.7-.5l-.7-3.1,21.7-4.6,5.2,7-2.2,1.8c-1.2-1-2.2-1.8-3-2.3-.8-.6-1.7-1-2.7-1.3-1.9-.5-3.8-.6-5.5-.2-.7.2-1.4.4-2,.9-.6.4-.9.9-.7,1.5l1.1,5.3c1.4-.3,2.3-.6,2.9-.8.6-.3.9-.7,1.1-1.4.2-.6.2-1.6,0-2.9l2.8-.6,2.5,11.7-2.8.6c-.4-1.2-.9-2-1.3-2.6-.4-.5-1-.9-1.6-1-.7-.1-1.6,0-2.9.2l1.3,6c.3,1.2.6,2.1,1.1,2.5.5.4,1.2.5,2.2.3.4,0,1.1-.3,1.9-.6,3.4-1.3,6.1-4.4,7.9-9l2.7.9-2,9.7-22.2,4.7ZM202.9,31.8l-.4-3.1c.9-.2,1.6-.5,2-.8.4-.4.6-.8.7-1.4,0-.5,0-1.2,0-2.1v-1c-.1,0-.7-4.4-.7-4.4l-9.8,1.2.5,4.4c.2,1.2.3,2.1.5,2.7.2.6.5,1.1,1,1.4.5.3,1.2.4,2.2.4l.4,3.1-13.1,1.7-.4-3.2c1.3-.3,2.1-.7,2.4-1.4.3-.7.3-1.7.2-3v-.9c-.1,0-1.4-10.2-1.4-10.2v-.9c-.3-1.4-.6-2.3-1-2.9-.4-.6-1.3-.8-2.7-.7l-.4-3.2,13.1-1.7.4,3.1c-2.1.4-3,1.4-2.8,2.9l.6,5,9.8-1.2-.6-5c-.2-1.5-1.3-2.2-3.4-2.1l-.4-3.1,13.1-1.7.4,3.2c-1.4.3-2.2.9-2.4,1.6-.3.8-.3,2,0,3.6l.3,2.6c.7-.1,1.7-.3,3-.4,1.6-.2,3-.2,4.3-.2,1.3,0,2.7.3,4.2.7,1.3.3,2.5,1.1,3.6,2.3,1.1,1.2,1.8,2.5,2,4.1,0,.6,0,1.2,0,1.9-.2,1.7-.8,3-1.9,4-1,.9-2.2,1.6-3.6,1.9-1.4.4-3.1.7-5.2.9l-14.4,1.8ZM211.3,18.2l.7,5.4c.1,1.1.4,1.9.7,2.5.4.6,1,.9,2,1,.4,0,.8,0,1.2,0,.8-.1,1.6-.4,2.4-.8.8-.4,1.4-.9,1.9-1.4.4-.5.7-1,.8-1.7.2-.7.2-1.3.1-2-.1-.8-.4-1.5-.8-2-.6-.8-1.5-1.2-2.6-1.4-1.1-.2-2.4-.1-3.9,0-.3,0-.7.1-1.3.2-.6,0-1,.1-1.2.2ZM233,28.8v-3.2c1.3-.1,2.2-.5,2.5-1.1.4-.6.5-1.6.5-3v-.9s-.2-10.3-.2-10.3v-.9c0-1.4-.2-2.3-.6-3-.4-.6-1.2-1-2.6-1v-3.2s22.1-.4,22.1-.4l3.7,7.9-2.5,1.4c-1-1.2-1.8-2.1-2.5-2.9-.7-.7-1.5-1.3-2.4-1.8-1.8-.9-3.6-1.3-5.3-1.3-.7,0-1.4.2-2.1.5-.7.3-1,.8-1,1.3v5.5c1.5,0,2.5-.1,3.1-.3.6-.2,1.1-.5,1.3-1.1.3-.6.5-1.5.6-2.9h2.9s.2,11.9.2,11.9h-2.9c-.2-1.2-.5-2.1-.7-2.7-.3-.6-.8-1-1.4-1.3-.6-.2-1.6-.3-2.8-.3v6.1c.1,1.3.3,2.2.7,2.6.4.5,1.1.7,2.1.7.5,0,1.1,0,1.9-.2,3.6-.7,6.8-3.1,9.5-7.3l2.5,1.4-3.9,9.2-22.7.4ZM345.6,36.8l-38.9-5.8-4.4-.7.5-3.2c.9,0,1.7,0,2.2-.3.5-.3.8-.8,1-1.4.2-.6.4-1.5.6-2.7l1.6-10.2c.2-1.2.3-2.1.2-2.7,0-.6-.2-1.2-.6-1.6-.4-.4-1-.8-1.9-1l.5-3.2,13,1.9-.5,3.2c-1,0-1.7,0-2.2.4-.5.3-.9.8-1.1,1.4-.2.6-.4,1.4-.5,2.6l-1.6,10.2c-.2,1.1-.3,2-.3,2.7,0,.7.2,1.2.6,1.7.4.5,1.1.8,2,.9l2.1.3c.9.1,1.6,0,2.1-.3.5-.3.8-.8,1.1-1.4.2-.6.4-1.5.6-2.8l1.6-10.2c.2-1.2.3-2.1.2-2.7,0-.6-.2-1.2-.6-1.6-.4-.4-1-.8-1.9-1l.5-3.2,13,1.9-.5,3.2c-1,0-1.7,0-2.3.4-.5.3-.9.8-1.1,1.4-.2.6-.4,1.4-.5,2.6l-1.6,10.2c-.2,1.1-.3,2-.3,2.7,0,.7.2,1.2.6,1.7.4.5,1.1.8,2,.9l2.1.3c.9.1,1.6,0,2.1-.3.5-.3.8-.8,1.1-1.4.2-.6.4-1.5.6-2.8l1.6-10.2c.2-1.2.3-2.1.2-2.7,0-.6-.2-1.2-.6-1.6-.4-.4-1-.7-1.9-1l.5-3.2,13,1.9-.5,3.2c-1,0-1.7,0-2.2.4-.5.3-.9.8-1.1,1.4-.2.6-.4,1.4-.5,2.6l-1.6,10.2c-.2,1.1-.3,2-.2,2.6,0,.6.2,1.2.6,1.7.4.5,1.1.8,2,1l-.5,3.2ZM349.4,37.7l.9-3.1c1.3.3,2.3.1,2.8-.4.5-.5,1-1.4,1.3-2.7l.2-.8,2.7-9.9.2-.8c.4-1.3.4-2.3.3-3-.2-.7-.9-1.3-2.2-1.7l.9-3.1,12.7,3.4-.8,3c-2.1-.4-3.3.2-3.7,1.6l-3.4,12.4,14.1-15.5,10.1,2.7-.9,3.1c-1.4-.2-2.3,0-2.9.6-.5.6-1,1.7-1.5,3.3l-2.8,10c-.3,1.1-.5,1.9-.5,2.6,0,.6,0,1.2.4,1.7.3.5.9.9,1.9,1.3l-.9,3.1-12.7-3.4.8-3c.9.2,1.6.2,2.1,0,.5-.2.9-.5,1.1-1,.3-.5.5-1.1.7-2l.3-1,3-10.9-14.5,16.2-9.8-2.7ZM398.5,53l1.2-2.9c.9.3,1.6.4,2.1.3.5-.1.9-.4,1.3-.8.3-.4.6-1.1,1-1.9l.4-.9,6-14.1-7.2-3-6.8,13.9c-.7,1.5-1.6,2.8-2.8,3.7-1.1.9-2.3,1.5-3.5,1.8-1.5.4-2.9.3-4.3-.3-.4-.2-.8-.4-1.1-.6-.7-.5-1.2-1.1-1.4-1.9-.2-.8-.2-1.6.1-2.3.4-.9,1-1.4,2-1.7.6-.2,1.2-.2,1.8,0,.6.3,1.1.7,1.5,1.3.4.6.5,1.2.4,1.7,0,.1,0,.2,0,.2,0,0,.2,0,.4,0,2.1-.6,3.7-2.3,4.8-4.9l3.4-8,.4-.9c.3-.8.6-1.5.7-2,0-.5,0-1-.3-1.5-.3-.5-.8-.9-1.7-1.3l1.3-3,23,9.6-1.3,3c-.9-.3-1.7-.3-2.3-.1-.6.2-1,.6-1.4,1.1-.3.5-.7,1.3-1.2,2.3l-1,2.4,2.3.9c1.7.7,3.2,1.5,4.4,2.2,1.2.7,2.3,1.6,3.3,2.7.9,1,1.6,2.2,1.9,3.8.4,1.6.3,3.1-.4,4.5-.2.5-.5,1.1-.9,1.6-1,1.4-2.2,2.2-3.6,2.5-1.3.3-2.7.3-4.1,0-1.4-.4-3-1-5-1.8l-13.3-5.6ZM412.6,45.3l-2.1,5c-.4,1-.6,1.8-.6,2.5,0,.7.4,1.3,1.2,1.9.3.2.7.4,1,.6.8.3,1.6.5,2.4.5.9,0,1.6,0,2.3-.3.6-.2,1.1-.6,1.6-1.1.5-.5.8-1,1.1-1.7.3-.7.4-1.5.3-2.1-.2-1-.7-1.8-1.5-2.5-.9-.7-2-1.3-3.4-1.9-.3-.1-.7-.3-1.2-.5-.5-.2-.9-.4-1.1-.4ZM424.5,64.1l1.7-2.7c.8.4,1.5.6,2.1.5.6,0,1.1-.4,1.5-.8.4-.5,1-1.2,1.6-2.3l5.4-8.8c.6-1,1.1-1.8,1.3-2.4.2-.6.3-1.2,0-1.7-.2-.6-.7-1.1-1.4-1.6l1.7-2.7,11.2,6.9-1.7,2.7c-.9-.5-1.7-.7-2.3-.6-.7,0-1.2.4-1.7,1.2l-3,4.9,7.6-1.4c1.7-.2,2.6-.6,2.9-1.1.2-.4-.4-1.1-1.6-1.8l1.7-2.7,10.6,6.5-1.7,2.7c-1-.3-1.9-.5-2.6-.6-.7-.1-1.4-.2-2.2-.2-.7,0-1.5,0-2.5.3l-4.3.8v11.2c-.2,1.4,0,2.8.4,4.2.3.8.9,1.6,1.8,2.3l-1.7,2.7-11.9-7.3,1.7-2.7c1.1.6,1.8.8,2.2.6.3,0,.5-.2.6-.5.3-.5.4-1.3.4-2.6v-7l-4,.5-1.2,1.9c-.6,1-1,1.8-1.3,2.3-.2.6-.3,1.2,0,1.7.2.6.6,1.2,1.4,1.8l-1.7,2.7-11.2-6.9ZM468.8,78.9l4.2,3.8,3.4-7.5-7.6,3.6ZM460.3,88.5l-8.2-7.6,2.2-2.4c.8.5,1.6.8,2.2.9.6,0,1.2,0,1.6-.1.5-.2,1.4-.5,2.6-1.1l18.5-8.5,4.4,4.1-7.8,19.6c-.4,1-.6,1.7-.7,2.1-.1.4,0,.9,0,1.4.1.5.4,1.1.9,1.7l-2.2,2.4-9.6-8.9,2.2-2.3c.2.2.4.4.7.5.2.2.5.3.7.5.2.1.4.2.6.3.2,0,.4,0,.6,0,.3-.1.5-.3.7-.5.2-.2.3-.4.4-.6.3-.5.6-1.2.9-2.1.3-.9.6-1.5.7-1.8l-6.3-5.8-3,1.6c-.4.2-.7.5-1,.7-.2.3-.4.5-.5.8,0,.6.4,1.5,1.4,2.6l-2.2,2.3ZM475.9,103.5l2.7-1.7c.8,1.1,1.6,1.6,2.3,1.6.7,0,1.7-.4,2.8-1.1l.7-.5,8.7-5.5.7-.5c1.2-.7,1.9-1.4,2.2-2.1.3-.6.2-1.6-.5-2.7l2.7-1.7,7,11.1-2.7,1.7c-.6-.8-1.2-1.3-1.8-1.6-.6-.3-1.3-.1-2,.3l-4.3,2.7,5.3,8.3,4.3-2.7c.8-.5,1.3-1.1,1.3-1.6,0-.6-.2-1.3-.8-2.3l2.7-1.7,7,11.1-2.7,1.7c-.6-.8-1.1-1.3-1.7-1.4-.6-.2-1.1-.2-1.7,0-.6.2-1.4.7-2.4,1.3l-8.7,5.5c-1,.7-1.8,1.2-2.3,1.6-.5.4-.7.9-.8,1.5,0,.6.1,1.3.6,2.1l-2.7,1.7-7-11.1,2.7-1.7c.6.8,1.1,1.2,1.6,1.4.5.2,1,.2,1.5,0,.5-.2,1.1-.5,1.9-1l.8-.5,3.8-2.4-5.3-8.3-3.8,2.4c-1,.7-1.8,1.2-2.3,1.6-.5.4-.7.9-.8,1.5,0,.6.1,1.3.6,2.1l-2.7,1.7-7-11.1ZM29.5,108.5c1.8,2.8,2.7,4.8,2.9,6.2.2,1.3-.2,2.6-1,4.1-.4.6-.7,1.1-1,1.3-.6.6-1.2.9-2.1,1-.8,0-1.6,0-2.2-.5-.8-.5-1.3-1.2-1.4-2.2,0-.6,0-1.2.4-1.8.4-.6.9-1,1.5-1.2.6-.3,1.2-.3,1.7-.2,0,0,.1,0,.2,0,0,0,0-.1,0-.3,0-.9-.4-2-1.1-3.2l-16.9-1.9c-1.4-.2-2.6.5-3.7,2l-2.6-1.6,7.3-11.7,2.5,1.6c-.4.7-.6,1.2-.8,1.6-.1.3-.2.6,0,.9,0,.2.2.3.4.4.3.2.9.4,1.6.6l8.1,1.6-5-7.6c-.4-.6-.7-1-1-1.2-.2,0-.3-.1-.5-.1-.4,0-.9.6-1.7,1.8l-2.5-1.6,5.4-8.6,2.6,1.6c-.5,1.3-.7,2.3-.7,3.2,0,.9.4,1.8,1,2.9l8.4,13ZM258.9,54.7c110.2,0,199.5,42.7,199.5,95.4s-89.3,95.4-199.5,95.4S59.4,202.8,59.4,150.1s89.3-95.4,199.5-95.4ZM258.9,57c108.9,0,197.2,41.7,197.2,93.1s-88.3,93.1-197.2,93.1S61.7,201.5,61.7,150.1s88.3-93.1,197.2-93.1ZM258.9,47.9c113.9,0,206.3,45.8,206.3,102.2s-92.4,102.2-206.3,102.2S52.6,206.6,52.6,150.1s92.4-102.2,206.3-102.2ZM258.9,50.2c112.7,0,204,44.7,204,99.9s-91.4,99.9-204,99.9S54.9,205.3,54.9,150.1s91.4-99.9,204-99.9ZM381.6,141.4c-2.7-.4-5.4-.5-8.1-1,.4,1.4,1.3,1.9,2.3,1.6,2.1-.3,4.2.3,6.3.3l-.4-.8ZM345.9,143.4c3.8-.4,7.6-.4,11.4-.9-.5,1.4-1.8,1.9-3.2,1.5-3-.3-5.9.2-8.8.2l.6-.8ZM320.8,146c3.1-.8,6.9.4,9.7-2.1-.6,1.3-.4.8-1,2.1-2.8.5-7.2,1.9-8.7,0ZM294.5,150.4c3.2-.8,6.4-1.2,9.6-2-.4,1.4-1.5,2-2.7,1.9-2.5,0-4.9.8-7.4,1.1l.5-.9ZM320,180.2c3-.4,13.4-3.5,16.4-2.2-3,.3-13.6,3.8-16.4,2.2ZM299.1,183.8c3.1-.9,6.3-1.6,9.4-2.6-.4,1.4-1.5,2.1-2.6,2-2.5.1-4.8,1.1-7.3,1.5l.5-.9ZM203.5,188.1c.5-.1,1.5-.4,1.9-.6-.1,2.8-2.7,5.4-2.1,8.1,2.6.6,5.3.5,7.9.4.9-2.6,0-7.4,3.3-8.2-.5,3.3-3.2,6.5-1.2,9.8-4.6,0-9.1-.7-13.5-2,1.4-2.5,2.4-5,3.7-7.6ZM193.9,145.6c-.5-1.1-1-2.2-1.5-3.3,2.5-1.2,5.4-4.7,8.2-2.2-6.3,4.4-1.7.7-6.7,5.6ZM201.9,141.1c1.5,1.8,3,3.5,4.8,5.1-1.7,2.8-3.3,5.9-6.2,7.6-1.7-2.1-3-4.4-4.6-6.6,1.5-2.9,4.5-4.3,6.1-6.1ZM163.3,180.5c2.9-.2,6.3-.6,8,2.4.5-.1,1.5-.3,1.9-.5.3,1,.6,2.1.8,3.1-3.6-1.5-7.7-2.5-10.8-5ZM275.7,177.7c3.2.9,8.4,1.4,11.5-.5-.2,2.6-8,1.7-4.5,3.7.6-.2,1.8-.8,2.3-1,1.1-.5,2.3-.9,3.5-1.4-1.8,3.5-6.2,3.8-9.6,3.7-2.2,0-5.6,0-5.7-2.8,2.1.8,4.2,1.6,6.3,2.2.5-2.5-3.2-1.9-3.8-3.9ZM192.5,179.2c.6-1.8,2.6-1.3,4.1-1.3,1.8.2,3.6.3,5.1,1.3-2.8,2.2-6.1,0-9.2,0ZM226.8,179.7c7.7-1.8,8.7-7.2,17.4-.2-7.7-1.1-10.3-3.5-15.1,3.1,2.8,1.7,6.2,4,9.6,2.4,3.5-.8,5.7-3.7,8.2-6-.9,5.6-7.5,7.3-12.3,8.1-3.4.5-3.8,4.6-5.7,6.9,2.6.7,6.1,2.1,8.2-.3,1.5-2.4,2-5.3,4.1-7.3-.8,3.2-1.3,6.8-3.2,9.5-3.4,1.1-6.9.4-10.1-1,.1-1.7.3-4.1,1.6-6.3-4.2.5-7.8-1.3-12.5-2.5,1.3-.5,2.6-1.7,4-.8,3.3,1.5,7,1.8,10.6,1.9-2.2-2.1-5.1-3.4-8-4.4,1.3-.3,2.7-.7,4-1.2-3.5-.2-7-.4-10.4-1.3.2-.3.8-.9,1-1.2,2.9-.1,5.8.5,8.7.4ZM145.2,180c2.6-1.1,5-2.5,7.5-3.8-.5,3.2-4.4,3.5-6.8,4.7,2.4,1.7,4.7,3.8,7.5,4.8,2.8-1.2,3.4-5.5,6.3-6.3,1.5.5,0,1.9-.5,2.6-1.7,2.7-4.8,4.1-6.7,6.6-4.1-2.2-8.1-4.4-12.3-6.4-2.1-1.3-4.8-2.3-5.7-4.8,2.6,1.1,4.8,3,7.2,4.5-.4-1.3-.8-2.6-1.2-3.8,2.1,1.1,2.9,3.5,4.8,4.8.1,0,.3.3.4.4-.1-.1-.3-.3-.4-.4,0-.7,0-2.1-.1-2.9ZM243.3,176.6c8.5-1.8,9.3-4.2,15.2-3-4.2,2-9.4,6.2-15.2,3ZM280.2,174.8c1.7-.8,5.5.5,7.2.6,1.8,1-2.3,1.1-2.9.7-.9-.4-4.5,0-4.3-1.3ZM179.2,183.5c.4,3.9-2.9,6.5-5.3,9,3.1,0,6.1,1.7,9.2,1.3,3.1-2.1,3.6-5.9,4.7-9.2-2.8-.7-5.7-1-8.6-1.1ZM174.3,177.8c0,.4-.1,1.1-.2,1.4,3.1,2.7,7.3,3.5,11.3,3.4,2.6,0,5.6,2.2,7.8,0-3.6-1.7-6.5-4.5-9.9-6.4-3.1,0-6,1-8.9,1.6ZM174.1,176.4c2.9,0,5.6-1.2,8.4-2,5.6.6,8.8,9.4,14.9,5.9-2.7,1.9-5.1,4.6-8.6,4.4,0,3.9-1.9,7.6-4.6,10.3-3.6.3-7.2-.3-10.7-1.5.8.9.9,1.8,1.9,2.7-1.5-.2-2.8-.6-4.1-1.2.8-4.4,3.8-8.4,6.6-11.9-3-1.1-5.8-2.7-8.1-4.9,1.3-1,2.5-2.1,4.3-1.9ZM165,172.4c2.3.7,5,.8,6.5,3-3,2.3-4.7-1.1-6.5-3ZM249.9,168.7c5.8-.2,11.4-2.4,17.3-1.7v.8c-8.4.4-16.6,3.4-25.2,2.1,2.3-1.7,5.3-.9,7.9-1.3ZM147,166.9c1.1,3.1,4.8,3.5,6.6,6,2.6,3.1,6.7,4.7,10.7,4.9-1.4-3-3.1-5.9-5-8.7-4-1.2-8.3-1-12.3-2.3ZM145.7,165.8c2.6.3,5,1.2,7.6,1.2,2.6,0,5.7-.5,7.7,1.7,2.1,2.7,2.4,7.2,6.2,8.2.2.3.6.9.8,1.2-2.3.3-4.7,1.9-7,.9-3.8-1.5-7.5-3.3-11.1-5.3-.7-2.2-2.3-1-4.3-8ZM140.8,165.8c2.9,2.5,4.7,6,7.4,8.7-4.7,0-6.7-4.8-7.4-8.7ZM341.1,164.9c.5,0,1.5,0,2,0-1.8,3.8-.4,7.9-.5,11.8-2.1,1.2-3.7-.1-5.1-1.7,3.5-2.2,3.8-6.5,3.6-10.2ZM376.3,160.4c.8.2,2.5.5,3.3.6-.4,2.2-2.4,4.7-.3,6.5,3-1.5,2.1-6,5.1-7.1-.7,2.1-.8,4.5-2.2,6.3-2.5,2.6-6.5,1.9-9.5,3.7-1.5.9-8.4,2.6-9.4.7,1.6,0,7-1.5,8.6-1.5,2.5-2.8,5.4-5.2,4.4-9.3ZM294.8,158.7c5.2,2.1,10.7,0,16.1,1,1.4.4,3,.9,2.8,2.7.9-.5,1.9-.9,2.9-1.3-4,5.2-3,1.4-7.2,2.8,0,.6,4.2,0-.5,2.8-2.2.3-4.4,1-6.6,1.3,6.1-3.3,4.7-4.7,7.7-6.7-3.1,0-8.8-.3-11.9-.2.6,2.5,3,5.1,3,7.7-2.8,1.2-6,3.5-9.1,3.6,1.5-3.5,5.1-1.4,7.2-4.3-1.6-3.3-2.7-6.2-4.4-9.4ZM388.3,158.3c2.2-.3,4.5-.3,6.8-.4-1.7,3-7.4.1-6.5,4.7-1.4-.7-1.5-3.4-.3-4.2h0ZM126.3,159.6c1.1-5.3,8.5-6.5,12.2-3.2-3.1.3-6.9-.4-9,2.5-.6,1.8,1,2.9,2.4,3.7,3.5.5,7.1.5,10.3,2-3,.5-6.1.3-8.9-.7.5,1.1,1,2.2,1.5,3.3-3.6-1.3-6.3-4.7-8.4-7.7ZM140,155c1.5-.9,3-1.9,4.6-2.7-.8,1.5-2.1,2.7-2.7,4.3,1.4,3.5,5.3,4.9,6.9,8.2-1.5-.4-3-.8-4.5-1.1-1.9-2.7-3.8-5.4-4.3-8.7ZM153.1,148.3c5.2-.6,8.8,4.4,10.8,8.6-2.9-.4-5.3-2.3-7.9-3.7.1,2.1-1.6.7-3.4.5,2.3,3.1,4.2,7.4,8.8,7.3-1.7-1.8-4.1-4.1-5.8-5.8,4.4.2,6.3,4.8,10.2,6.5-1.9-.2-3.4.8-5.3.7.9,1.6,3.2,1.6,4.6,2.4,5,1.7,9.4,5.2,14.8,5.8l.7.7c-4.3,0-8.8-1-12.5-3.4-2.7-1.4-5.4-3.3-8.5-3.4-2.2.4-4.4,1.3-6.6,1.8,1.4-2.8,2.4-2,4.9-3.2-2.3-1.5-4.7-9-9.2-10,2.2,3.4,4.6,6.7,6.7,10.1-1.2,0-2.1-.6-2.8-1.6-1.9-3-3.6-6.1-5.7-8.9,4-.7,8-.4,12,0,0,.1.3.3.4.4,0-.1-.3-.3-.4-.4-.4-.6-1.2-1.7-1.5-2.3-1.6-.3-3.9,0-4.4-2.1ZM244.8,133c2.1,2.3,3.8,5,4.8,7.8-1.2-1-2.9-2-4-3.1-.2-.5-.6-1.2-.8-1.7,0-.7,0-2.4,0-3.1ZM312.7,171.2c.3,2.5.6,4.9.7,7.4,4.5,0,5-5.1,3.7-8.4-1.4.4-2.9.8-4.4,1ZM320.9,166.2c2.6,1.8,6,2,9.1,1.9-2.7-1.3-6.2-3.5-9.1-1.9ZM343.9,160.7c.2.4.5,1.2.7,1.6,2.8.6,5.7.3,8.6.4v-.5c-3.2.5-6.1-1.5-9.3-1.5ZM347.5,158.9c1.2.9,2.5,1.8,3.9,2.3,1-2,2.1-4,2.7-6.2-2.4,1-4.5,2.5-6.6,4ZM402.1,154.1c2.6,2.8-.8,5.3-1,8.3,3.1.3,6.2.1,9.2-.8.9-2.9,2.7-6,1.4-9-2.9,1.8-6.3,1.8-9.6,1.4ZM403.1,152.8c2.8,1.4,7.2.2,8.9-2-3,.4-6.2.6-8.9,2ZM347.4,149.6c-4.2,1.1-6.4,3.5-9.7,6.1-1.9,1.1-2,4.2-5.8,4.4.3.5.7,1.3,1,1.8-1,0-4.8.3-5.8.3,1.9,2.3,6.4,1.6,8.8,1.8,7.5-1.5,12.2-8.4,19.3-10.7,2.6-1.7,6.7-1.5,8-4.7-5.3-.2-10.5.4-15.7,1.2ZM363.1,152.8c-2.4,1.3-5.4.1-7.6,1.9.7.6,1.3,1.2,2,1.7-1.7.2-3.6.2-3.7,2.4,3.3-.2,6.5,1,9.8,1,3.8-.5,6.1-3.6,8.2-6.5,2.6-1.7,6-2,8.7-3.7,1.5-1.2,2.7-2.8,4-4.3-14.4-2.1-15.4,3.4-21.5,7.4ZM392.4,153.9c2.3,0,7.1,1.2,9.3.2,1.3-2.9,1.7-6.2,4.1-8.4,1.9-1.7,3.4-3.1,4.7-5.5-.4-.2,1.1-3.7-.3-2.7-2.5,1.5-5.4,3.6-8.8,5.3-2.3,3.8-5.9,7.4-8.9,11.1ZM411.7,134.6c1.4,2.7-.4,5.3-.7,8-.6,2.7-5,2.9-5,5.6,1.9,1.5,4.4,1.3,6.7,1.6,2.2-3.3,1.9-6.2.9-9.6,1.7-2,.5-4.2-1.9-5.6ZM134.6,131.2c2.8-1.8,4.8-4.7,7.9-6-1.4,2.5-3.3,4.6-5.7,6.1-5.9,3.9-11.4,7.3-17.1,11.3-3,2.2-5.7,5-7,8.6-2,5.3-1.4,11.1-3.1,16.5-1.4,4.3,1.4,9,4.9,11.5,9.1,5.7,17.5,12.8,27.4,17.1,4.5,1.6,8.8,3.6,13.3,5.3,5.3,1.9,11.1,2.3,16.6,3.2,19.7,4.4,40.3,3.3,59.9-1.1,4.2-1.2,8.5-2.2,12.9-2.6,8.9-1.3,17.6-3.6,26.3-5.7,18.6-6.5,38.5-6,57.9-8.4,17.8-.4,35.6-2.6,53.4-3.5,5.5-1.1,11.2-1.3,16.5-3.2,4.2-4.4,4.3-10.9,6.9-16.2-2.1,0-4.2-.3-6.3-.2-2.4,1.2-4.4,2.9-6.8,4-2.3.7-7.7,1-10,.3,5.5-1.2,9.4-1.5,11.6-4,1.3-1.9,2.5-3.9,4-5.7-.4,2-.9,4-1.3,6,3-1.9,5-5.1,4.7-8.7-3.3,0-6.5-.2-9.8.2-4.4-.2-7.7,4.6-12.3,3.1-3.6-1.1-7.5-.9-11,.7,2.3.2,4.6.2,6.9.4-3.3,2-7.1-.2-10.7.6-3.9.7-7.6-.8-11.4-1.2,1.2,3.5,5.7,2.3,8.5,3.4,0,2.2,0,4.4.1,6.7,3.7-1.3,3.5-5.8,6.3-7.9,0,4.5-3.4,8.3-7.6,9.5-4.9,1.4-10.8,4.4-16,4.4,2.4-2,6.8-3.2,9.9-3.6,1.8-2.2,4.4-3.1,5.4-5.9-.5-1.1-1-2.2-1.5-3.3-5.3,1.6-10.9,1.5-16.4.8-4.2,1.4-10.7,2-16.7.8,1.8,1.2,7.5,3,9.7,1.9,1.8,2.4.7,5.3,0,7.8.7.8,1.5,1.6,2.2,2.4-1.6-.2-3.6.2-4.9-1.2-1.2.6-2.4,1-3.7,1.2.4-2.1,2.3-3,4.1-3.7,0-1.6,0-3.1,0-4.7-4.3,1.4-8.9,1.2-13.3.3-1.9.7-.4,2.7-.4,4,.6,2.7-.2,5.4-.9,8-2.9-.4-5.8-.2-8.7.1-.4-3.7,1.6-4.7-1.3-5.1.5-3.3-1.2-2.4-5.1-2.5,0,1.3.1,2.6.2,3.9-1.4-1.2-1.5-3-1.8-4.7,3.3,0,5.8-1,9,0,.4,1.6,1,3.7,1.1,5.3.7-2.4.9-5.1-.9-6.4-2.5-.3-5-.2-7.5-.4,2.6-4.5,8.6.7,12.4-1.3,3.9-2.2,6-7,10.4-8.4,2.5-.8,5.3-2,7.4-3.6-3.2-1.3-6.1-1.8-9.3-1.1-2.4.7-5.4,2.3-7.2,4-.8-.3-2.6,0-3.4-.3,5.2-4.6,14-7.5,20.4-4.1,3.4-4.4,8.8-6.5,13.8-8.5,5.5-2,11.6-1.7,17.3-.6,7-3.8,15.5-5.2,23.2-2.4-.6.4-1.7,1.1-2.3,1.5.6,0,1.7.2,2.3.3-3.9,2.4-9,6.5-13.5,7.6-1.6,1.8-1.9,1.9-4.1,3.4,1.9-.4,3.9-.8,5.5-.9,2.9,1,6.1,2.1,9,.5,2.8-1.1,4.9-3.4,6.8-5.6,2.6-2.2,4.8-5,6.7-7.8-3.3.4-6.8,2.6-10,.7,3.8-1.8,8.1-1.6,12-2.8,3.8-2.5,9.4-3.6,10.4-8.7-3.3-3.3-8.6-1.6-10.9,2.1,1.5,1,3.1,2,4.7,3.1-.9,0-2.6.2-3.5.2-.3-.5-1-1.5-1.4-1.9-2.1,1.6-4.3,3-6.4,4.5-3.3,1.2-6.9,1.6-10.4,1.3,1.4-.7,3-1,4.5-1.4.5-1.1,1-2.2,1.5-3.3-2.1-.5-4.2-1.2-5.9-2.5.2-.7.7-2,1-2.6,2,3.2,5.6,4.1,9.2,3.7-1.8,1-3,2.7-3.8,4.6,2.6.5,4.5-1.5,6.3-2.9-.2-.8-.4-1.7-.6-2.5,3.4,0,5-3.3,7.5-5.1,2-1,4.3-1.3,6.4-1.6,2.9,2.1,6,4.5,7,10.4.6,1.6,1,3.2.7,4.9-.8,2.1,0,2.8-.9,6.8-.7,2.7-1.7,5.3-2.6,8-.9,3-4,4.3-6.1,6.4-2.4,6-3.2,14.1-9.7,17.1-10.7,2-21.6,3.5-32.5,3.9-5.9,1.3-12.1.3-18,1.6-11,.2-22,1.1-32.9,2.2-14,.7-27.9,2.5-41.4,6.3-11.7,3.3-23.8,5.5-35.8,7.8-9.4,2.4-18.9,4.6-28.6,4.7-1.6,0-3.2.6-4.8,1h-7.8c-3.6-1.4-7.5-.9-11.3-1.1-6.6-.4-12.9-2.7-19.5-3.2-7.8-.8-14.8-4.4-22.1-6.9-11.9-4-21.1-12.7-31.6-19.3-2.7-2.8-4-7-3.6-10.9.8-3.1,2.3-6.1,2.1-9.4,0-6.7,3.2-13.4,8.8-17.1,5.4-3.7,10.5-6.9,16-10.5ZM306.7,147.7c4.7-2.2,8.9,2.3,12.8-6.1-2.9,2.3-10.1,1.7-12.8,6.1ZM338.2,138.8c-.3,1.6-.8,3.2-1.5,4.7,3.5.2,7.9-1.1,8-5.3-2.1.4-4.3.6-6.5.6ZM323,138.1c2.4,1.9,6.3,2.1,8.6,0-3.2.1-5.4.1-8.6,0h0ZM365.9,137c-.9,1.9-1.9,3.7-3.3,5.2,3.3.4,7.3-.7,7.8-4.5-1.5,0-3-.3-4.5-.7ZM351.3,135.7c3.5.3,7.1.3,10.7.2-.2-.4-.6-2.4-.7-2.9-3.1-.7-8-.7-9.9,2.7ZM341.1,128.7c-3.8,1.2-8.3,2.8-9.9,6.8-1.4.2-2.7.5-3.8,1.4,1.3,0,2.7,0,4,0,1-1.1,1.5-3.1,3.3-3.1,1.9,1.5,3.7,3.8,6.3,4.1,3.9-.7,7.5-2.5,10.8-4.6,2.6-1.3,5.6-2,7.2-4.6-5.7-2.5-11.3-.9-17.9.2h0ZM387.2,124.9c6.1-1.6,12.9.3,18.8,2-4.3,1.2-7.4-.1-11.8-.1-3.6-.9-7.8,2-10.3,4-2.7,1.3-5.6,2.5-8.2,3.8-4.2,1.7,1.4,2.1,7.3,2-2.5,2.5-8.1,1-11.2.5.1,1.3.2,2.6.3,3.9-4.3,2.5-9.3,2.4-14,2.1,1.2-1.3,2.7-2,4.3-2.5.4-1.5.7-2.9,1.1-4.4-3.6.6-7.2,2.1-10.9,1.8-2-.1-3.3-1.8-5.2-.3-1.7,1.9-2.6,4.1-3.4,6.4-4.2.5-8.3,1.7-12.6,1,1.1-2.4,4.7-2.6,4.8-5.5.8-1.8-1.2-2.7-2.1-3.9-.6,1.3-.8,2.9-1.7,4-3.5,2.2-7.8,1.4-11.5.4-.8,2.8-.6,7-4.1,7.7-3.7,1.8-8,1.7-11.8.3-1.4-1.6,2.7-3.5,3.5-4.5,2-.6-.6-1.5-1.1-2.8-4.4,0-7.2,3.9-11.2,2.1,5.4-.7,3.2-2.3,2.8-4.3-2.6,2.7-4.8,6.7-9,6.8,4.1-3.2,7.3-7.5,11.9-10.1-.4,1.3-.8,2.7-1.2,4.1,1.8-2.7,4.9-4.7,7.5-6.6-5.3,1.4-11.7.4-16.9,2-5.2,1.7-10.6,3.2-14.9,6.6.4-2.6.6-5.1.7-7.7.7,0,2.1.2,2.8.2-.3,1.4-.7,2.7-1,4.1,1.5-.8,3-1.6,4.6-2.4-1.5-4.2-4.8-5.1-8.6-6.1,0,3.6.2,9.5.5,12.8-.6-.2-1.7-3.5-2.3-3.7.6-4.1-.3-7.7.4-11.9,2.4,1.1,4.9,2,7.3,3.2,2,1.1,2.5,4,4.6,4.8,6.2-2.1,12.7-4.3,19.4-3.1,7.7-3.1,15.9-4.2,24.1-4.4,1.9,0,5.3-.2,5.9,1.9-14.8-1-23.3.7-32.1,10.8,3.1-1.1,4.8-1.1,6.2-.5,1.4.6,1.9,2,3.4,2.5,5.4,0,9.4-4.2,13.8-6.7,5.1-2.4,9-6.9,14.5-8.3,3.6-.8,7.2-1.7,10.9-1.6,3.2,0,6.7-.4,9.3,1.8,6.9-3.1,22.3-1.1,26.6-2.3ZM288.9,107.6c-1.1,3.1-2.2,4.5-6.8,4.6,3.4-1.9,4.3-2.5,6.8-4.6ZM151.4,142.2c2.2-2.3,2.1-5.8,3.1-8.6-3,1.8-2.3,5.7-3.1,8.6ZM108.6,141.9c5.3-9.8,8.5-16.4,14.3-20.4,5.7-4,9.1-9.3,11.3-13.8,0-1.4,3.9-2,5.1.1.8,2.1,4.1,2.8,6.2,4.3,3.7,2.5,6.7,8.7,11.9,12.2,1.6,1,.9,1.8,0,4.3-1.6,4.5-1.2,11-5.4,16.1-.9,1.6-.8,3.6-2.3,5.1-4,3.3-9-1-13.2,1.2-3.1,1.4-6.5,2.1-9.1,4.3-2.9,2.4-6.2,4.3-9.7,5.6.8-2.2,3.2-3,5-4.1,4.2-2.2,7.8-5.8,12.5-7.2,4.3-1.3,8.7-.4,13.1-.2,2-3.5,1.9-7.6,2.2-11.5.3-4.7,3.2-7,4.9-11.9-2.7-1.5-4.1-3.5-5.4-5.3-4.7-6.2-10-9.9-13.3-11.8-1.7.5-2.1,2.4-3.1,3.9-5.3,7.4-12.9,12.5-17.6,20.4-12.6,21.7-6.1,13.8-8.2,33.5-1-3-.8-6.2-1.9-9.1,0-5.6-.4-11,2.9-15.9ZM202.9,164.9c.8,1,1.7,2.1,2.7,2.9,3.5.5,6.9,1.5,10.4,1.3-3.4-3.4-8.7-3.3-13.2-4.2ZM174.8,164.4c3,1.8,6.4,3,8.9,5.5,3.8-.5,7.7.5,11.5.2-2.2-1.8-5.5-.7-7.8-2.4,1.3-.9,2.7-2,2.3-3.8-1.8-.2-3.3.6-4.2,2.1-3.6-.2-7.1-2.7-10.6-1.7ZM179,163.9c3.7.4,7.7-.2,10.3-3-3.6-.2-8-.3-10.3,3ZM258.5,156c-1.3,1.5-2.8,4.6-.3,5.6,4.5,1.8,10.7,4.1,14.7.2-4.9.3-9.1-3.3-14.1-2v-1.3c3.6,0,7.3.4,10.7,1.5-.6-1.5-1.2-2.9-1.6-4.5-2.7.8-5.2,2.4-8.1,1.9,2.3-2.9,6.3-3.8,9.9-4.3-.9-.9-1.8-2.4-3.3-1.8-3,.8-6.4,1.6-7.9,4.5ZM254.2,153.4c-5.4-.1-9.9,3.3-13.9,6.5,1.1,4.5,5.9,5.1,9.7,6,3.3.7,6.3-1.1,9.2-2.4-2.3-1.6-5.4-.6-7.6-2.3,1.5-.1,3-.2,4.6-.3-.1-4.6-5.3-.7-7.8-.9.3.4.9,1.3,1.2,1.7-2.1.3-4.3.6-6.4.9.5-1.9,2.5-2.5,4-3.3,3.2-1.4,6.6-2.8,10.2-2.8-.8-1.3-1.8-3.1-3.2-3ZM189.3,158.7c.9,1.3,1.2,2.8.8,4.4,3.4-2.1,7.2-3.5,11.2-4-1.5-2.7-3.3-5.2-4.7-7.9-2.8,2.2-4.7,5.2-7.2,7.6ZM275,150.6c-1.9,1.7-3.7,3.5-5.3,5.4-.8,1.2.6,2.4.9,3.6,3.9,1,7.9,1.6,12,1.3-2.4-3.9-7.6-4-11.3-2.1.4-2.8,3.5-3.7,5.3-5.5.7,1.2,1.3,2.4,2,3.6.1-2.3.4-4.5,1.1-6.7-1.6,0-3.2,0-4.7.4ZM173.1,155.8c3.4.3,6.1-2.4,9.5-2.5-1-1.4-1.9-4.1-4.1-3-2.3,1.2-4,3.4-5.4,5.5ZM201.8,155.4c1,1.7,1.8,3.5,2.5,5.4,2.5-1.9,5.4-3.1,8.5-3.2-.4,1.9-2.9,1.6-4.3,2.4-1.8.9-4.1,1.8-4.9,3.9,5.2-.3,9.7,2.5,14.6,3.7,4.5.8,9.3,3.7,13.5.5-2.5-2.2-5.8-2.2-8.9-2.1,0-.5.1-1.5.2-2,3,.5,6.1,1,9,2.1,3.3,1.5,7,.9,10.6.7.2-3.2-4.3-2.2-6-4.1,1.1,0,3.2,0,4.3,0-1.1-1.6-3.1-1.8-4.8-2.4,2.1-1,4.4-1.6,5.6-3.8-5.1-1.8-9.1,2.2-12.6,5.2,2.6,0,5.1,0,7.7.3-1.4.9-3.2,1.9-4.9,1.2-3.4-.9-6.9-.2-10.3-.3,1.8-1.9,4.4-2.4,6.8-3.3-1.5-1.5-3.9-2.8-5.9-1.4-2.6,1.9-5.2,4-7.6,6.1-1.6-.8-3.4-.4-5.1-.5-1.1-2,2.4-2.5,3.6-3.4,0-1-.1-2-.1-3-2.9-2.1-3.8-5.9-5.5-8.8-1.8,2.4-3.6,4.8-5.7,6.9ZM185.6,153.8c-.8,1.7,1.4,3.4,2.9,3.3,2.8-2,4.8-4.9,6.5-7.8-3.5.7-6.8,2.1-9.4,4.6ZM279.9,154c1.1-.1,3.4-.3,4.6-.4-1.1,1.4-6,1.7-3.3,4.1,4,.1,8.4-.2,12-2.1-1.5-2.5-1.6-7-5-7.5-3.3,1-6.5,2.8-8.2,5.9ZM170.9,153.7c3.2-.8,5.7-3.3,7.8-5.7-3.1.5-8,1.7-7.8,5.7ZM184.3,152.7c3.3-1.4,6.1-3.6,9.6-4.6-.8-1.3-1.6-2.6-2.3-3.9-2.5,2.7-6.9,4.6-7.3,8.5ZM163.8,149.2c1.3-.2,2.7-.3,4-.5.6.5,1.7,1.4,2.2,1.9,2-1.5,4.3-2.6,6.3-4.2-1.5-.3-2.8-.7-3.9-1.7-3.8.4-5.7,2.3-8.6,4.5ZM180.5,147.6c-.8,1.7,2,3.5,3,1.7,1.8-2.4,4.1-4.3,6.3-6.3-3.6.2-6.6,2.4-9.3,4.6ZM208.1,147.2c3.6,4,6.9,8.4,7.7,14,2.8-1.7,4.9-4.5,8.3-4.8-1.5-2.6-3.3-5.1-4.3-8-.7-1.1-.6-3-2.1-3.4-2.3,1.6-3,5.8-6.3,5.5,2.1-2.9,5.5-5.5,5.4-9.5-3.9,0-6.6,3.4-8.7,6.3ZM173.7,144c1.3.9,2.7,1.3,4.2.9.9.4,2,2.3,3,1.1,1.7-2,3.9-2.4,6.2-3.6-2.1-1-3.1-1.3-4.8-2.5-2.7.6-6.2,2.3-8.6,4.1ZM184.1,138.1c1.3,2.1,3.6,3,5.6,4.3-.3-.7-.9-2-1.2-2.7,1.1.7,2.2,1.3,3.2,2.1,1.5-1.6,3.4-2.6,5.5-3.3-1.8-.8-3.8-1.5-5.3.1-.4-.4-.7-1.7-1-2-1.8-.3-4.5.8-6.8,1.6ZM218,140.4c1.3,1.6,1.7,3.5,2.2,5.5,2.1,2.7,3.9,6.2,5.4,9.3.9,2.1,3.7,1.8,5.1,3.4,1.7-2.7,5.1-2.8,7.3-4.7-4.5-4.5-5.4-11.3-9.8-15.9-2.5,2.4-3.7,6.6-7.4,7.4,2.4-3.4,5.7-6.5,6.3-10.8-3.6.9-6.5,3.3-9.2,5.8h0ZM205.8,143c.4.6,1.3,1.8,1.7,2.4,2.2-2.1,4.6-4,7.2-5.6-1-1.7-1.9-3.4-2.7-5.2-1.8,3-3.4,6.2-6.2,8.4ZM204.1,142.1c2-3,5.9-4.8,6.6-8.5-3.6.5-9.8,4.4-6.6,8.5ZM237.7,133c-2.1,2.2-3.7,4.8-5.9,6.9,5,11.1,6.1,8.5,8.9,15.4.7.1,2.1.4,2.8.5,2.5-2.4,6-2.9,9.1-4-1.9-6.5-6.5-11.3-10.3-16.6-1-1.4-2.6-3.5-4.5-2.2ZM202.4,130.5c-1.3.4-9,2.4-10.3,5.3,2.6.5,7.7.6,9.6,3.6,1.1-2.9,2.8-4.4,5.4-6.3-1.5-.7-3-1.5-4.7-2.7ZM222.9,130.4c-2,3.3-3.7,7.1-7.5,8.7,1.5.1,3,0,4-1.3,2-2,4.7-2.9,6.9-4.7-1.1-.9-2.2-1.8-3.4-2.7ZM214.3,137.3c3-2.2,5.6-4.9,7.7-7.8-3.8.3-8.3,3.6-7.7,7.8ZM235.6,128.9c-2.5,2.7-7.2,5.1-5.5,9.3.4-.2,1.2-.5,1.6-.6,1.6-3.3,6.4-5.2,5.7-9.2-.5.1-1.4.3-1.8.4ZM203.8,128.8c2.2,3.1,6.7,2.4,9.4,5,1.9-2.5,4.6-4.2,7-6.2-.4-.2-1.3-.7-1.8-1-4.6,2.1-9.6,3-14.6,2.1ZM208.2,127.7c2.6-.2,7.6-1.3,9.9-2.6-1.1-2.3-8,.4-9.9,2.6ZM225.4,128.2c-1.1,1.1-.5,2.7.8,3.3,2.2-2.2,4.2-4.6,6-7.2-2.7.1-5.3,1.6-6.8,3.9ZM240.5,129.9c-.7,1.6,1.2,2.4,2,3.3.8-3.1,3-5.5,5.2-7.7.8,4.3-5.2,6.3-4.3,10.8,2.8,1.3,11.1,12.9,10.7,15.3,1.3.7,2.7,0,4.3,1.7,2.2-1.2,5.6-2.9,7.9-3.8-5.4-9.2-11.8-17.2-18.9-26.3-2.7,1.8-5.7,3.6-7.1,6.7ZM219.4,124.6c1.4,1.4,2.8,2.6,4.1,4.1,1.7-2.8,5-3.8,6.9-6.3-3.7.3-7.3,1.4-11,2.3ZM237.2,126.5c1,.7,2,1.4,2.9,2.2,1.5-2.8,4.4-4.4,6.8-6.3-1-.9-2.1-1.8-3.2-2.7-2,2.5-4,5-6.5,6.8ZM217.4,123.1c0,1.2,5.5-.3,8.4-.9,0-.4-.3-1.8-.4-2.2-2,.7-6.6,1.1-8,3.1ZM231.4,127.9c-1.5,2.1-4.3,4.2-3.4,7.1,2-1.9,3.8-3.9,5.5-6,2.5-4.1,6.6-6.9,9.2-10.9-5.2,1.2-7.6,6.4-11.2,9.8ZM245.5,119.9c1.7.5,3.2,1.6,4.5,2.7-.3-1.3-.7-2.7-1.1-4,1.4-1.5,2.7-3,3.9-4.6-3.5-.4-7.1,2.2-7.3,5.8ZM234.7,115.7c-1.9.6-4.3.4-4.9,2.6-1.3.3-2.8.3-3.2,1.8,1-.1,1.9-.3,2.9-.5,1,1.6,2.3,2.9,3.7,4.1,2.2-1.4,3.8-3.4,5.5-5.4-2.6.8-3.9,1.2-6.7,1.1l-.5-1.1.5-1c3,.2,4.6-.2,7.4-1,1.8-.6,3,1.4,4.3,2.2,1.5-1.5,3-3,4.4-4.6-4.4,1.2-9.1.4-13.5,1.8ZM237.9,113.7c3.1-.4,7.6-.6,10.3-.5-1.9-3.1-6.4-1.5-10.3.5ZM252,108.2c-1.4,1-2.7,1.7-5.2,2.7,2.8-.4,7,.4,5.2-2.7ZM252.8,108c.3.4.9,1.3,1.2,1.7-1.2,1.2-2.4,2.4-3.4,3.7,2,0,3.3-1.6,4.7-2.8-.6,1.6-1.2,3.2-1.5,4.9,1.4,0,2.8,0,4.2,0-1.1-2.9,1.8-4.7,3.6-6.3-1.3-1.2-3-1-4.5-.3-.7-2.1-2.7-1.3-4.2-.9ZM282.6,98.6h5.1c2.9.9,6.4,2.6,6.1,6.2-.7,2.3-2,5.3-4.7,5.5,1.4-2.5,3-4.9,3.7-7.7-2.4-.1-3.1-.1-5.4-.4,1.2-.6.8-1,2.1-1.4-1.9-.9-4-1.3-6.1-1.3-.9,2.1-2.1,4.1-2,6.4-2.2-.7-4.4-1.1-6.6-1.2,2.3,2.5,1.2,5.8,1,8.7,1.5-.7,3.2-1,4.5-2.2.9-1.4,1.1-3.1,1.7-4.6-.3,2,1.1,5.1-1.3,6.2-2.6,1.4-5.5,2-8.3,2.6.9,1.8,4.9,3.8,4.8,7.4-3.9-5-7.7-7.1-11.3-8.3-3.2,2.2-2.6,6.6-4.5,9.7.5-.2,1.5-.6,2-.8.8,3.3,1,5.4,3.8,7.7-1.2-4.4-.4-7.5-.4-12,4.5,1.9,12.1,2.6,14.3,10.7-2.8-4-8.2-7.7-13.2-8.6-.4,4.5,1.4,11.5,4.5,15.1-.6,0-3.5-2.5-4.1-2.6,3.5,4.5,6.2,8.9,8.3,14.2-1.4-.7-2.4-1.9-3-3.4-2.3-5-6.1-9.1-8.9-13.9-2-3.3-4.5-6.3-7.1-9.2-.9,1-1.7,2-2.6,3-.6-.5-1.1-1-1.7-1.5,1.7-1.7,3.4-3.5,4.6-5.6-1.1.1-2.2.2-3.3.4-.4-.3-1.3-1-1.7-1.4-1.6,2.2-1.2,5.2-1.9,7.8,4.7,1.7,8.9,6.1,10,10.7-2.3-2.3-5.1-5.4-7.8-7.4,1.7,1.1,14.6,20.5,18.1,24.6,2.4-2.3,5.6-3.2,8.9-3.1-2.1-1.8-3.8-4.1-3.9-7.1.9.9,1.6,1.9,1.9,3.2,1.6,1.1,3.1,2.5,3.6,4.5,2.9-1.6,6-2.5,9.3-2.2,1.1,3,3.7,5.7,3.4,9.2-2.8,3.3-7.6,2.2-11.4,2.3,1.3,1.5,2.4,3.3,3.1,5.2,1.3,3.4,4.5,6,4.4,9.9-1.8-.7-2.3-2.5-3-4.1-.9-2.8-4.1-3.4-6.6-4.3-5.3.7-10.4,3-14.7,6.3,2.8.6,5.4,2.1,8.3,2.3,4.3-1.2,8.3-3.3,12.8-3.8.7,3.1-2.8,2.2-4.7,2.8-6.6.4-10.3,6.6-16,9.1,0-3.8,4.6-4.1,6.6-6.7-3.3-1.7-7-2.6-10.7-2.2-2.2,3.2-5.2,6.1-9.2,6.8,4.2,2,8.8.4,12.9-.8,0,1-.1,2.1-.2,3.2-.7,0-2,.2-2.7.2,0,1.3-.2,2.6-.2,3.9-1,.7-2,1.3-3,2,2,1.8,4.7,1.4,7.2,1.7,2.3-2.6,3.1-5.9,4.2-9,.3,3-.3,5.9-1.1,8.7,3.4.2,6.8,0,9.9-1.6,3-1.7,6.5-3,8.6-6,1.5-2.4,2.1-5.1,2.7-7.8.8,0,2.4-.3,3.2-.4-1.1,3.7-2.9,7-4.8,10.3,2-.1,4.4.4,6.1-.8,2.1-3.4,2.8-7.4,2.6-11.4.5,0,1.5,0,2,0,0,4.8-2.1,9-3.5,13.5-3.5-.4-7-.7-10.6-.5.8.8,1.6,1.5,2.4,2.2-1.8,0-3.7-.3-5.4.7-4.3,2.3-9.3,2.8-14,3.4-3.6-.4-7.1-.9-10.7-.9-.2-3.2,1.7-5.6,3.8-7.7-4.2,0-8.7-1.1-12.8-1.7,2.5,1.8,6.2,2.2,8.6,4.3-4.5.4-9.1.1-13.2-1.6,3.2.4,5.3,0,7,0-.7,0-4.9-1.1-5.3-1.7.2,0,1.1-2.3.9-2.4,2.9-.3,6-.5,8.6-2,2.2-1.2,3.4-3.5,5.5-4.7,3.3-1.9,6.1-4.4,9.5-6.2,4.3-1.9,9.5-4.3,14-1.4-.4-1.2-.9-2.4-1.3-3.5-3.1.7-6.2.6-9.3,0-1.6,1.8-3.6,3.4-6.2,3.6-2.7,0-5.3-.8-8-1-2.5.9-4.7,2.9-7.5,2.8-3.6.5-7.5-2.2-10.6.7-3.4,2.9-8-1.1-11.4,2,2.3.7,6.3-.9,6.8,2.4-7,.2-14.1,0-21.1,0-3.2-.2-5.7,1.8-7.7,4,2.9,1.1,5.8,2.5,8.3,4.4.5.5,1.6,1.6,2.2,2.1-2,1.8-3.9,4.4-6.9,4.3-3.5.5-7.3-1.2-10.5.7-3,1.7-6.8-.3-8.6-2.9,3.8-.7,6.5,4.2,10.3,1.3-2.1-1.3-4.8-2.2-6.1-4.6,4.6.2,8.1,4.2,12.8,4.2,2.9.7,5.3-1.3,7.5-2.8-2.5-1.6-4.9-3.4-7.7-4.5-3.3-.2-5.4,3-8.5,3.5,2.5-2.6,6.2-4.1,7.7-7.6,4-4.3,10.5-3.7,15.9-3.2-3.1-1.5-6.6-2.2-9.9-1.2-5.2.5-11.4,1.5-15.7-2.3-2.1-1.6-4.8-1.5-7.3-1.9,2.6-3.7,6.9-.3,10.1.4-1-1.8-2.8-2.2-4.7-2.4,1.9-.8,3.8-1.7,5.7-2.7-4.3-.8-8.5.7-12.1,3.1-.2,1-.2,1.9-.3,2.9,3.5.8,6.1,3.6,9.8,3.7,3,.9,6.5-.2,9.2,1.7-9.1.8-18.1-2.1-27.2-1.2-3.9-1.8-6.6-5.8-10.9-6.9-1.9-.3-4.7.6-4.6-2,2.2.1,2.8.2,5.5.4,4.2.5,8.3-2,13.8-2.9-.8-1.4-2.4-2.5-3.1-4-.6.9-3.2,2.1-3.8,3-.8-.1-1.6-.3-2.4-.4.8-1.1,4.9-2.5,5.6-3.6-2.3.8-5.8,1.7-7.8,2.9.8.4,3.7,2.5,4.5,2.9-.4.5-2.3.1-2.7.6-1.2-1-2.3-2-3.4-3-2,.8-4.1,1.2-6.2.6-1-1.1-2-2.3-2.9-3.5,2.9.3,5.1.5,7.7,1.7-.8-1.4-1.1-2-2.3-3.2-1.5.3-2.8.5-4.2.9.3-.6.8-1.3,1.2-1.9-1.2.4-2.4.7-3.5,1,.9-1.5,2.4-2.4,3.9-3.2-2.5.2-5.2.7-7.5-.7,3.9-3,8-5.7,12.8-7.2,7.8-4.5,16.7-7,24.3-11.9,5.1-.7,10.1-5.7,15.4-6.8,3.2-.9,5.9-3.1,9-4.1,4.1-1.2,7.4-3.9,11.4-5.1,4.2-1,7.5-4.7,12-4.7,4,.2,6.5-3.9,10.5-4.1,3.9-.8,6.6,2.8,10.2,3.5-3.7,1-5.6,4-6.8,7.5-1.1,1.8.5,3.5,1.2,5.1,1.5-2.9,2.9-5.9,4.9-8.4,1.1-1.6,3.3-.3,4.9-.4.5-.8.4-2.2,0-2.9-1.3-.8-2.6-1.6-3.9-2.4,3.3-3.8,9.2-4.6,14-4.2.8-.8,1-2.3,1.9-3.3-7.1.6-13.5,3.9-20.4,6.7,1.4-4,7.1-3.3,10.4-5.2,3.3-2.1,7.5-1.4,10.9-3.2ZM132.6,176.6c-7.8-.7-14.2-10.5-13.8-13.2,5,6.1,6.6,8,13.8,13.2ZM154.9,189.1c2.7,1,12.9,3,14.6,5.7-2.6-1.1-13.3-2.8-14.6-5.7ZM186.1,198.4c2.6.7,17.5,1.4,20.1.2-1.6,3-17.3,1.5-20.1.7v-.9ZM226.2,192.2c2.5.5-1.1,3.6-1.5,4.7-1.7.5-11.8,4.8-18.1,2.5,1.8-1.4,14.9.4,16.4-4.2,1.1-.4,3.7-.2,3.2-3ZM240.3,194.7c5.7-1.2,11.6-2,17.3-3.3-.8,1.5-2.7,2.2-4.8,2.2-4.5.3-8.9,1.5-13.4,2l.9-.9ZM176.9,196.4c2.6.3,5.8,2.7,8.2,1.1-.5,1.1-.3.6-.8,1.8-2.4-.5-6.1-.5-7.4-2.9ZM363.8,133.9c-.2-3.1-2.8-2.1-4.7-3.2,4.8-5.3,18.5-3.8,27.4-3.7-1.9,1.1-3.2,2.4-5.1,3.5-6.9,1-6.4,3.5-10.7,5.4-6.8-.2-4.6-1.2-6.8-1.9ZM271.1,110.1c-.8-1.3-2-2-3.3-2.5,1.3-1.1,3.4-1.8,6.1-2.2,1.9,2.5.6,5.4.8,8.3-1.1.3-3.8.6-4.9.9,1-1.7,1.5-3.1,1.3-4.5Z"/>
</svg>