<svg width="3056" height="758" viewBox="0 0 3056 758" fill="none" xmlns="http://www.w3.org/2000/svg">
    <path
        d="M2700.71 435.002H2783.79L2871.54 649.09H2875.28L2963.03 435.002H3046.11V753.644H2980.76V546.247H2978.12L2895.66 752.088H2851.16L2768.7 545.469H2766.05V753.644H2700.71V435.002Z"
        fill="white" />
    <path
        d="M2427.9 753.644H2355.7L2465.7 435.002H2552.52L2662.37 753.644H2590.17L2510.36 507.817H2507.87L2427.9 753.644ZM2423.38 628.396H2593.91V680.985H2423.38V628.396Z"
        fill="white" />
    <path
        d="M2104.69 753.644V435.002H2319.4V490.546H2172.06V566.473H2308.36V622.017H2172.06V698.099H2320.03V753.644H2104.69Z"
        fill="white" />
    <path d="M1799.91 490.546V435.002H2061.61V490.546H1964.06V753.644H1897.47V490.546H1799.91Z"
        fill="white" />
    <path
        d="M1426.97 753.644V435.002H1552.69C1576.85 435.002 1597.44 439.618 1614.45 448.849C1631.47 457.977 1644.43 470.683 1653.35 486.968C1662.38 503.149 1666.89 521.819 1666.89 542.979C1666.89 564.139 1662.32 582.81 1653.2 598.991C1644.07 615.172 1630.84 627.774 1613.52 636.798C1596.3 645.822 1575.45 650.334 1550.98 650.334H1470.85V596.346H1540.08C1553.05 596.346 1563.73 594.116 1572.14 589.655C1580.64 585.091 1586.97 578.816 1591.12 570.829C1595.37 562.739 1597.5 553.455 1597.5 542.979C1597.5 532.399 1595.37 523.168 1591.12 515.285C1586.97 507.298 1580.64 501.126 1572.14 496.77C1563.63 492.31 1552.84 490.08 1539.77 490.08H1494.34V753.644H1426.97Z"
        fill="white" />
    <path
        d="M1377.03 594.323C1377.03 629.071 1370.45 658.632 1357.27 683.007C1344.2 707.383 1326.36 726.001 1303.75 738.863C1281.24 751.621 1255.93 758 1227.83 758C1199.51 758 1174.1 751.569 1151.59 738.708C1129.08 725.846 1111.29 707.227 1098.22 682.852C1085.15 658.477 1078.62 628.967 1078.62 594.323C1078.62 559.575 1085.15 530.014 1098.22 505.638C1111.29 481.263 1129.08 462.696 1151.59 449.938C1174.1 437.076 1199.51 430.646 1227.83 430.646C1255.93 430.646 1281.24 437.076 1303.75 449.938C1326.36 462.696 1344.2 481.263 1357.27 505.638C1370.45 530.014 1377.03 559.575 1377.03 594.323ZM1308.73 594.323C1308.73 571.815 1305.36 552.833 1298.62 537.378C1291.98 521.923 1282.59 510.202 1270.46 502.216C1258.32 494.229 1244.11 490.235 1227.83 490.235C1211.54 490.235 1197.33 494.229 1185.19 502.216C1173.06 510.202 1163.62 521.923 1156.88 537.378C1150.24 552.833 1146.92 571.815 1146.92 594.323C1146.92 616.831 1150.24 635.813 1156.88 651.268C1163.62 666.723 1173.06 678.444 1185.19 686.43C1197.33 694.417 1211.54 698.411 1227.83 698.411C1244.11 698.411 1258.32 694.417 1270.46 686.43C1282.59 678.444 1291.98 666.723 1298.62 651.268C1305.36 635.813 1308.73 616.831 1308.73 594.323Z"
        fill="white" />
    <path d="M794 490.546V435.002H1055.7V490.546H958.144V753.644H891.553V490.546H794Z" fill="white" />
    <path
        d="M2654.48 319.642V1H2780.19C2804.25 1 2824.79 5.30457 2841.8 13.9137C2858.92 22.4191 2871.94 34.5031 2880.86 50.1655C2889.88 65.7242 2894.39 84.0315 2894.39 105.088C2894.39 126.247 2889.83 144.451 2880.7 159.699C2871.57 174.842 2858.35 186.46 2841.03 194.55C2823.81 202.641 2802.96 206.686 2778.48 206.686H2694.31V152.542H2767.59C2780.45 152.542 2791.13 150.778 2799.64 147.252C2808.14 143.725 2814.47 138.435 2818.62 131.382C2822.87 124.329 2825 115.564 2825 105.088C2825 94.5077 2822.87 85.5874 2818.62 78.3267C2814.47 71.066 2808.09 65.5686 2799.48 61.8345C2790.98 57.9967 2780.24 56.0778 2767.28 56.0778H2721.85V319.642H2654.48ZM2826.56 174.635L2905.75 319.642H2831.38L2753.9 174.635H2826.56Z"
        fill="white" />
    <path
        d="M2386.24 319.642V1H2600.95V56.5445H2453.61V132.471H2589.9V188.015H2453.61V264.097H2601.57V319.642H2386.24Z"
        fill="white" />
    <path
        d="M2180.43 319.642H2067.47V1H2181.36C2213.41 1 2241 7.37907 2264.13 20.1372C2287.27 32.7916 2305.05 50.9953 2317.5 74.7482C2330.05 98.5011 2336.33 126.922 2336.33 160.01C2336.33 193.202 2330.05 221.726 2317.5 245.583C2305.05 269.439 2287.16 287.747 2263.82 300.505C2240.59 313.263 2212.79 319.642 2180.43 319.642ZM2134.84 261.919H2177.63C2197.54 261.919 2214.29 258.393 2227.88 251.339C2241.57 244.182 2251.84 233.136 2258.69 218.199C2265.64 203.159 2269.11 183.763 2269.11 160.01C2269.11 136.464 2265.64 117.223 2258.69 102.287C2251.84 87.3507 2241.63 76.3559 2228.04 69.3026C2214.45 62.2494 2197.7 58.7228 2177.78 58.7228H2134.84V261.919Z"
        fill="white" />
    <path
        d="M2011.83 1V319.642H1953.64L1815.01 119.09H1812.67V319.642H1745.3V1H1804.43L1941.97 201.396H1944.77V1H2011.83Z"
        fill="white" />
    <path
        d="M1622.5 1H1689.87V207.931C1689.87 231.165 1684.32 251.495 1673.22 268.921C1662.22 286.346 1646.82 299.934 1627.01 309.684C1607.2 319.331 1584.12 324.154 1557.77 324.154C1531.32 324.154 1508.19 319.331 1488.38 309.684C1468.57 299.934 1453.17 286.346 1442.17 268.921C1431.18 251.495 1425.68 231.165 1425.68 207.931V1H1493.05V202.174C1493.05 214.31 1495.69 225.097 1500.98 234.536C1506.38 243.975 1513.95 251.391 1523.7 256.785C1533.45 262.179 1544.81 264.875 1557.77 264.875C1570.84 264.875 1582.2 262.179 1591.85 256.785C1601.6 251.391 1609.12 243.975 1614.41 234.536C1619.8 225.097 1622.5 214.31 1622.5 202.174V1Z"
        fill="white" />
    <path
        d="M1098.79 319.642V1H1166.16V132.471H1302.92V1H1370.13V319.642H1302.92V188.015H1166.16V319.642H1098.79Z"
        fill="white" />
    <path d="M794 56.5445V1H1055.7V56.5445H958.144V319.642H891.553V56.5445H794Z" fill="white" />
    <path fill-rule="evenodd" clip-rule="evenodd"
        d="M40 311.114V194.625C40 188.827 43.136 183.484 48.1972 180.656L367.378 2.35974C372.188 -0.32691 378.041 -0.350285 382.872 2.29787L519.569 77.2315C524.692 80.0402 527.878 85.4187 527.878 91.2618V212.406C527.878 224.566 514.849 232.281 504.187 226.436L384.148 160.634C378.643 157.616 371.882 158.097 366.859 161.862L361.798 165.657C357.768 168.679 355.396 173.422 355.396 178.459V348.408C355.396 354.127 352.343 359.411 347.389 362.268L250.564 418.107C240.055 424.167 226.888 416.784 226.577 404.656L223.007 265.48C222.7 253.547 209.908 246.14 199.406 251.814L63.606 325.191C52.9456 330.951 40 323.231 40 311.114ZM706.036 175.617L605.109 117.369C594.613 111.312 581.451 118.666 581.111 130.779L576.783 285.004C576.448 296.936 563.632 304.314 553.142 298.614L430.78 232.116C420.119 226.322 407.137 234.037 407.134 246.169L407.098 357.898C407.096 363.614 410.146 368.897 415.098 371.755L562.344 456.735C566.705 459.252 569.627 463.675 570.229 468.673L570.985 474.948C571.737 481.182 568.77 487.28 563.4 490.539L446.388 561.544C435.99 567.854 436.155 582.995 446.688 589.074L551.647 649.649C556.707 652.569 562.957 652.5 567.951 649.469L701.215 568.602C705.928 565.742 708.837 560.659 708.914 555.148L714.035 189.694C714.116 183.899 711.056 178.514 706.036 175.617ZM395.108 755.605L496.035 697.357C506.531 691.299 506.741 676.228 496.417 669.877L364.966 589.018C354.796 582.762 354.812 567.978 364.996 561.747L483.788 489.069C494.138 482.737 493.945 467.641 483.436 461.572L386.657 405.676C381.705 402.816 375.603 402.815 370.651 405.673L223.405 490.653C219.043 493.17 213.751 493.487 209.119 491.51L203.305 489.027C197.528 486.56 193.728 480.943 193.59 474.664L190.58 337.867C190.312 325.71 177.112 318.282 166.579 324.361L61.6195 384.936C56.5599 387.856 53.4949 393.3 53.6234 399.14L57.052 554.938C57.1732 560.448 60.1227 565.508 64.8582 568.33L378.913 755.491C383.893 758.458 390.088 758.502 395.108 755.605Z"
        fill="url(#paint0_radial_5749_11875)" />
    <path fill-rule="evenodd" clip-rule="evenodd"
        d="M40 311.114V194.625C40 188.827 43.136 183.484 48.1972 180.656L367.378 2.35974C372.188 -0.32691 378.041 -0.350285 382.872 2.29787L519.569 77.2315C524.692 80.0402 527.878 85.4187 527.878 91.2618V212.406C527.878 224.566 514.849 232.281 504.187 226.436L384.148 160.634C378.643 157.616 371.882 158.097 366.859 161.862L361.798 165.657C357.768 168.679 355.396 173.422 355.396 178.459V348.408C355.396 354.127 352.343 359.411 347.389 362.268L250.564 418.107C240.055 424.167 226.888 416.784 226.577 404.656L223.007 265.48C222.7 253.547 209.908 246.14 199.406 251.814L63.606 325.191C52.9456 330.951 40 323.231 40 311.114ZM706.036 175.617L605.109 117.369C594.613 111.312 581.451 118.666 581.111 130.779L576.783 285.004C576.448 296.936 563.632 304.314 553.142 298.614L430.78 232.116C420.119 226.322 407.137 234.037 407.134 246.169L407.098 357.898C407.096 363.614 410.146 368.897 415.098 371.755L562.344 456.735C566.705 459.252 569.627 463.675 570.229 468.673L570.985 474.948C571.737 481.182 568.77 487.28 563.4 490.539L446.388 561.544C435.99 567.854 436.155 582.995 446.688 589.074L551.647 649.649C556.707 652.569 562.957 652.5 567.951 649.469L701.215 568.602C705.928 565.742 708.837 560.659 708.914 555.148L714.035 189.694C714.116 183.899 711.056 178.514 706.036 175.617ZM395.108 755.605L496.035 697.357C506.531 691.299 506.741 676.228 496.417 669.877L364.966 589.018C354.796 582.762 354.812 567.978 364.996 561.747L483.788 489.069C494.138 482.737 493.945 467.641 483.436 461.572L386.657 405.676C381.705 402.816 375.603 402.815 370.651 405.673L223.405 490.653C219.043 493.17 213.751 493.487 209.119 491.51L203.305 489.027C197.528 486.56 193.728 480.943 193.59 474.664L190.58 337.867C190.312 325.71 177.112 318.282 166.579 324.361L61.6195 384.936C56.5599 387.856 53.4949 393.3 53.6234 399.14L57.052 554.938C57.1732 560.448 60.1227 565.508 64.8582 568.33L378.913 755.491C383.893 758.458 390.088 758.502 395.108 755.605Z"
        fill="white" />
    <defs>
        <radialGradient id="paint0_radial_5749_11875" cx="0" cy="0" r="1"
            gradientUnits="userSpaceOnUse"
            gradientTransform="translate(377.018 379.038) rotate(90) scale(590.359 525.368)">
            <stop stop-color="#C8FF53" />
            <stop offset="1" />
        </radialGradient>
    </defs>
</svg>