<svg width="1442" height="1030" viewBox="0 0 1442 1030" fill="none"
    xmlns="http://www.w3.org/2000/svg">
    <path
        d="M100.988 3C113.488 59.3333 135.288 191.6 122.488 270C106.488 368 97.4877 395 116.488 543.5C135.488 692 102.488 689.5 97.9877 847.5C94.3877 973.9 96.4877 1020.83 97.9877 1028.5M196.988 3C199.488 14.1667 210.488 43.3 234.488 70.5C264.488 104.5 308.488 152 266.988 242C225.488 332 184.988 361 194.488 411.5C203.988 462 253.988 541.5 260.488 570C266.988 598.5 271.207 637.778 217.988 745.5C176.488 829.5 180.821 963.167 193.988 1021"
        stroke="#2D2D2D" />
    <path
        d="M291.488 5C305.654 24 340.688 67.2 367.488 88C400.988 114 447.488 140.5 375.988 251C304.488 361.5 257.488 399.5 304.488 465C351.488 530.5 430.488 594.5 367.488 679C342.321 703.667 291.088 770.5 287.488 840.5C283.888 910.5 289.321 991 292.488 1022.5M387.488 1022.5C387.821 982.667 395.988 872.4 425.988 750C463.488 597 444.988 567 412.488 489C379.988 411 391.988 364.5 426.988 299.5C461.988 234.5 494.988 182 460.988 124.5C426.988 67 390.988 34 383.488 5M480.488 5C495.654 57.3333 522.288 182.3 507.488 263.5C488.988 365 479.488 439.5 493.488 516C507.488 592.5 527.488 767 530.988 804.5C534.488 842 544.988 870.5 500.988 970C490.988 991.2 483.821 1013.83 481.488 1022.5M576.988 5C576.654 136 576.188 409 576.988 453C577.988 508 558.488 609 585.488 679.5C612.488 750 659.988 838.5 652.988 881C645.988 923.5 604.488 970.5 594.988 988C585.488 1005.5 575.488 1015 576.988 1022.5"
        stroke="#2D2D2D" />
    <path
        d="M672.488 1021.5C676.654 1007.67 687.688 975.3 698.488 956.5C711.988 933 738.988 874 722.488 831C705.988 788 655.488 660 648.488 628C641.488 596 646.488 512.5 667.988 453C689.488 393.5 647.988 288.5 657.988 197.5C665.988 124.7 671.654 38.1667 673.488 4"
        stroke="#2D2D2D" />
    <path
        d="M770.488 4.5C754.821 91.8333 723.488 272.1 723.488 294.5C723.488 322.5 748.488 369.5 755.988 384.5C763.488 399.5 765.988 432 695.488 487.5C624.988 543 702.488 647 706.488 654.5C710.488 662 787.988 765 780.988 887.5C775.388 985.5 770.988 1020.67 769.488 1026"
        stroke="#2D2D2D" />
    <path
        d="M864.988 1023C871.488 972.833 878.688 857 855.488 795C826.488 717.5 773.988 637.5 748.988 594C723.988 550.5 694.988 481 779.988 459C864.988 437 866.988 426 862.988 408C858.988 390 838.988 393 820.988 383C802.988 373 782.988 349 820.988 214C851.388 106 861.654 27 862.988 1M960.488 1C940.654 89.6667 904.288 275.8 917.488 311C933.988 355 954.488 383.5 954.488 401.5C954.488 419.5 953.488 433 883.988 475.5C814.488 518 900.488 705 905.488 723C910.488 741 960.488 984 960.488 1003.5C960.488 1019.1 960.488 1027 960.488 1029M1055.99 1023C1041.15 1003.17 1007.09 955.1 989.488 921.5C967.488 879.5 971.488 837.5 980.488 799.5C989.488 761.5 1009.49 577 1018.49 542.5C1027.49 508 1054.99 451 1055.49 429.5C1055.99 408 1048.99 240 1049.49 192.5C1049.89 154.5 1055.32 49 1057.99 1M1151.99 1C1157.49 64 1167.59 195.9 1163.99 219.5C1159.49 249 1148.49 388 1151.99 429.5C1155.49 471 1164.49 578 1112.99 686.5C1061.49 795 1015.99 857.5 1035.99 897C1055.99 936.5 1092.99 960.5 1118.99 982C1139.79 999.2 1150.99 1020.5 1153.99 1029M1248.99 1023C1247.32 1014.67 1239.99 993.6 1223.99 976C1203.99 954 1142.49 910.5 1169.99 820C1197.49 729.5 1238.99 658.5 1246.49 578C1253.99 497.5 1250.99 462.5 1250.99 408C1250.99 353.5 1261.99 221.5 1256.49 149.5C1252.09 91.9 1250.99 26.5 1250.99 1M1343.49 1C1343.49 98 1343.49 295.5 1343.49 309.5C1343.49 327 1353.49 549.5 1337.49 644.5C1321.49 739.5 1301.49 817 1324.49 903C1342.89 971.8 1343.82 1015.67 1341.99 1029"
        stroke="#2D2D2D" />
    <path
        d="M5 137.027C84.5 122.694 260 94.9269 326 98.5269C408.5 103.027 546.5 108.027 637 156.027C727.5 204.027 751 255.527 817 247.527C883 239.527 995 174.527 1059.5 144.027C1124 113.527 1175 107.027 1269 118.527C1363 130.027 1392.5 139.527 1439.5 136.027M1439.5 204.027C1393.5 197.527 1292.8 183.327 1258 178.527C1214.5 172.527 1138.5 158.027 1016 240.527C893.5 323.027 880.5 354.527 817 350.027C753.5 345.527 735.5 327.027 715.5 308.027C695.5 289.027 658 222.027 574.5 209.027C491 196.027 507.5 162.027 445 156.027C382.5 150.027 70 215.027 5 209.027M5 272.527C85.5 259.694 257.3 234.227 300.5 235.027C354.5 236.027 419.5 235.027 497 258.527C574.5 282.027 638.5 275.527 677 308.027C715.5 340.527 761.5 391.027 805 384.027C848.5 377.027 920.5 350.527 990 308.027C1059.5 265.527 1160.5 247.527 1200.5 247.527C1240.5 247.527 1418.5 270.527 1429 271.527"
        stroke="#2D2D2D" />
    <path
        d="M1437 344.027C1384.83 339.36 1263.8 330.727 1197 333.527C1113.5 337.027 920 374.027 893 372.027C866 370.027 788 362.527 543.5 335.027C299 307.527 63.5 342.527 1 341.027M1 410.027C134.667 413.194 417.8 417.627 481 410.027C560 400.527 707 404.027 784 410.027C861 416.027 938.5 426.527 1211 410.027C1429 396.827 1452.5 408.527 1437 416.027M1437 478.527C1022.5 449.027 1025.9 418.927 701.5 458.527C639 465.527 370 473.527 195.5 476.027C55.9 478.027 7.66667 476.86 1 476.027M1 546.027C130 543.694 393.4 539.227 415 540.027C442 541.027 586.5 551.527 644 518.527C701.5 485.527 689 451.527 893 468.027C1097 484.527 1143 489.527 1160.5 490.527C1178 491.527 1303.5 518.527 1347 528.027C1381.8 535.627 1421.5 543.86 1437 547.027M1437 615.527C1403.83 607.194 1330.4 587.927 1302 577.527C1266.5 564.527 1145 529.527 1049.5 534.027C954 538.527 879.5 491.027 784 500.027C688.5 509.027 694.5 506.027 629.5 588.527C582.5 642.527 517.5 607.027 385.5 607.027C253.5 607.027 14 614.027 1 614.027M1 681.527C97.8333 677.527 305.6 670.727 362 675.527C432.5 681.527 518 701.027 555.5 699.027C593 697.027 625.5 705.027 693.5 632.027C761.5 559.027 967.5 624.027 1008.5 632.027C1049.5 640.027 1358.5 684.027 1437 681.527M1437 751.027C1365.83 764.527 1203.3 790.327 1122.5 785.527C1021.5 779.527 925.5 737.027 869 731.027C812.5 725.027 809.5 729.027 693.5 785.527C577.5 842.027 538.5 750.027 278 746.527C69.6 743.727 6.5 745.36 1 746.527M1 820.527C69.6667 808.694 246.2 795.427 403 837.027C599 889.027 615 914.527 784 837.027C882 802.027 940.5 874.527 1008.5 886.527C1076.5 898.527 1290.5 838.027 1347 830.027C1392.2 823.627 1425.83 818.027 1437 816.027M1437 886.527C1365.5 905.194 1201.1 942.027 1115.5 940.027C1008.5 937.527 955.5 901.527 894 894.027C832.5 886.527 719.5 940.027 667.5 940.027C615.5 940.027 445.5 897.527 320.5 891.527C220.5 886.727 65.8333 889.527 1 891.527M1 957.527C80.8333 954.36 269.5 949.927 385.5 957.527C530.5 967.027 703 982.527 798.5 957.527C894 932.527 979.5 971.027 1051 969.527C1122.5 968.027 1280.5 957.527 1329 957.527C1367.8 957.527 1418.5 969.194 1439 975.027"
        stroke="#2D2D2D" />
    <path
        d="M7.5 68.0267C105.5 60.6934 330.7 48.2267 447.5 57.0267C593.5 68.0267 662.5 80.5266 737.5 91.0266C812.5 101.527 903 104.027 1031.5 78.0266C1160 52.0266 1250.5 58.0266 1304.5 61.5266C1347.7 64.3266 1411.83 68.3599 1438.5 70.0266"
        stroke="#2D2D2D" />
</svg>