<svg width="43" height="43" viewBox="0 0 43 43" fill="none" xmlns="http://www.w3.org/2000/svg">
    <path
        d="M0 43L6.84221 43L30.6898 14.1698L30.738 18.9747L36.5464 11.4764L36.5822 18.0107L39.5579 10.7374L40.9344 12.3177C42.4232 9.15145 42.9415 5.90832 43 0.000730482L42.9998 -1.06705e-06C38.9182 0.0285106 34.7003 1.05175 31.481 2.6029L33.8233 3.73791L24.2788 7.70137L30.8848 8.45528L24.5037 13.336L29.5575 12.8094L-2.6791e-07 36.8709L0 43ZM-5.90338e-07 29.4947L22.9935 14.1305L-8.51436e-07 23.5214L-5.90338e-07 29.4947ZM-1.07988e-06 18.2953L16.7203 13.6869L-1.29111e-06 13.4628L-1.07988e-06 18.2952L-1.07988e-06 18.2953ZM12.887 42.9997L20.4302 42.9997L29.4561 21.0393L12.887 43L12.887 42.9997ZM25.7334 42.9997L30.9519 42.9997L30.5159 24.6986L25.7334 42.9995L25.7334 42.9997ZM32.7536 10.5699C33.4349 6.81179 36.3499 3.17204 40.8682 2.11285C40.367 4.90497 39.3596 6.91639 37.9823 8.27459C36.6269 9.61136 34.8882 10.3618 32.7536 10.5699Z"
        fill="#FBFF03" />
</svg>