<svg width="43" height="43" viewBox="0 0 43 43" fill="none" xmlns="http://www.w3.org/2000/svg">
<path d="M19.2559 8.06082H25.9881L33.3711 0.663101C33.5798 0.452987 33.828 0.286214 34.1014 0.172405C34.3749 0.0585949 34.6682 0 34.9644 0C35.2607 0 35.554 0.0585949 35.8275 0.172405C36.1009 0.286214 36.3491 0.452987 36.5577 0.663101L42.3474 6.46919C42.7654 6.8892 43 7.45737 43 8.04961C43 8.64184 42.7654 9.21001 42.3474 9.63003L37.2085 14.786H19.2559V19.2695C19.2559 19.864 19.0195 20.4342 18.5986 20.8546C18.1778 21.275 17.607 21.5112 17.0119 21.5112C16.4167 21.5112 15.8459 21.275 15.4251 20.8546C15.0042 20.4342 14.7678 19.864 14.7678 19.2695V12.5443C14.7678 11.3552 15.2406 10.2148 16.0823 9.37399C16.924 8.53318 18.0656 8.06082 19.2559 8.06082ZM5.79149 19.2695V28.2364L0.65256 33.37C0.234599 33.79 0 34.3582 0 34.9504C0 35.5426 0.234599 36.1108 0.65256 36.5308L6.44227 42.3369C6.65088 42.547 6.89908 42.7138 7.17254 42.8276C7.446 42.9414 7.73932 43 8.03556 43C8.3318 43 8.62512 42.9414 8.89858 42.8276C9.17204 42.7138 9.42024 42.547 9.62885 42.3369L19.2559 32.7199H28.2322C28.8274 32.7199 29.3982 32.4837 29.819 32.0633C30.2399 31.6429 30.4763 31.0727 30.4763 30.4781V28.2364H32.7204C33.3155 28.2364 33.8863 28.0002 34.3072 27.5798C34.728 27.1594 34.9644 26.5892 34.9644 25.9947V23.7529H37.2085C37.8037 23.7529 38.3745 23.5168 38.7953 23.0964C39.2162 22.6759 39.4526 22.1058 39.4526 21.5112V19.2695H23.7441V21.5112C23.7441 22.7003 23.2712 23.8407 22.4295 24.6815C21.5878 25.5223 20.4463 25.9947 19.2559 25.9947H14.7678C13.5774 25.9947 12.4359 25.5223 11.5942 24.6815C10.7525 23.8407 10.2796 22.7003 10.2796 21.5112V14.786L5.79149 19.2695Z" fill="#FBFF03"/>
</svg>
