<svg width="34" height="36" viewBox="0 0 34 36" fill="none" xmlns="http://www.w3.org/2000/svg">
<path fill-rule="evenodd" clip-rule="evenodd" d="M23.2385 3.85628C22.836 3.85717 22.4376 3.93598 22.0662 4.0882C21.6947 4.24043 21.3574 4.46308 21.0736 4.74344L21.0683 4.74601L5.18037 20.4011C4.37638 21.2062 3.92644 22.2893 3.92742 23.4171C3.9284 24.545 4.38022 25.6273 5.18561 26.4311L9.6491 30.89C10.2465 31.4851 11.0113 31.8912 11.8453 32.0562C12.6794 32.2211 13.5446 32.1374 14.3299 31.8158C14.8535 31.6023 15.3247 31.2861 15.72 30.89L15.7278 30.8849L30.6419 16.1093C31.0089 15.7461 31.5076 15.541 32.0285 15.5391C32.5494 15.5372 33.0498 15.7386 33.4195 16.099C33.7892 16.4594 33.998 16.9494 34 17.461C34.002 17.9727 33.7969 18.4642 33.43 18.8273L18.5237 33.5927L18.5185 33.5952C17.7572 34.3567 16.8491 34.9616 15.8472 35.3745C14.8453 35.7873 13.7697 36 12.6832 36C11.5967 36 10.5211 35.7873 9.51921 35.3745C8.51732 34.9616 7.60922 34.3567 6.84796 33.5952L2.38709 29.1389C0.857379 27.6126 0 25.5566 0 23.4148C0 21.273 0.857379 19.2171 2.38709 17.6907L2.39494 17.683L18.2855 2.0254C18.934 1.38359 19.7054 0.874199 20.5553 0.526582C21.4051 0.178966 22.3166 0 23.2372 0C24.1578 0 25.0693 0.178966 25.9192 0.526582C26.769 0.874199 27.5405 1.38359 28.189 2.0254L29.9613 3.76371V3.76628C30.6148 4.4029 31.1335 5.16029 31.4876 5.99477C31.8417 6.82925 32.0241 7.72432 32.0243 8.62838C32.0246 9.53244 31.8426 10.4276 31.489 11.2623C31.1354 12.0969 30.617 12.8546 29.9639 13.4915L29.9613 13.4941L15.8849 27.3697L15.8823 27.3723C15.4663 27.7828 14.9719 28.1086 14.4274 28.3308C13.8829 28.5531 13.2991 28.6675 12.7094 28.6675C12.1198 28.6675 11.5359 28.5531 10.9914 28.3308C10.4469 28.1086 9.95249 27.7828 9.53653 27.3723L9.52344 27.3569L8.65692 26.4826C8.24143 26.0733 7.91214 25.5876 7.6879 25.0533C7.46366 24.5189 7.34887 23.9464 7.35008 23.3684C7.3513 22.7905 7.4685 22.2184 7.69499 21.685C7.92147 21.1515 8.2528 20.6672 8.67001 20.2596L18.1206 11.0538C18.4941 10.7144 18.9871 10.5307 19.4958 10.5413C20.0045 10.552 20.4891 10.7562 20.8475 11.1109C21.2059 11.4656 21.4102 11.9432 21.4172 12.4429C21.4242 12.9427 21.2334 13.4255 20.8851 13.7898L11.4345 22.9982C11.333 23.0993 11.2761 23.2356 11.2761 23.3775C11.2761 23.5195 11.333 23.6558 11.4345 23.7568L11.4607 23.7825L12.3298 24.6568C12.3803 24.7062 12.4402 24.7453 12.5061 24.7719C12.572 24.7985 12.6426 24.812 12.7139 24.8118C12.7851 24.8115 12.8556 24.7975 12.9213 24.7705C12.9871 24.7434 13.0467 24.704 13.0969 24.6543V24.6517L27.1863 10.7658L27.1942 10.7555C27.4796 10.4769 27.7061 10.1455 27.8607 9.78055C28.0152 9.41559 28.0948 9.0242 28.0948 8.62891C28.0948 8.23363 28.0152 7.84224 27.8607 7.47728C27.7061 7.11231 27.4796 6.78097 27.1942 6.50232L27.1889 6.49717L25.4088 4.74858L25.4035 4.74344C25.1197 4.46308 24.7824 4.24043 24.4109 4.0882C24.0394 3.93598 23.6411 3.85717 23.2385 3.85628Z" fill="#FBFF03"/>
</svg>
