<svg width="44" height="40" viewBox="0 0 44 40" fill="none" xmlns="http://www.w3.org/2000/svg">
<path d="M4.26851 37.9424C7.46333 33.8222 8.82104 29.7057 9.39726 26.976C9.43437 26.8004 9.50623 26.6355 9.60794 26.4925C9.70965 26.3494 9.83883 26.2316 9.98669 26.147C10.1345 26.0624 10.2976 26.013 10.4648 26.0023C10.632 25.9915 10.7994 26.0195 10.9556 26.0845L19.2512 29.5314C19.4251 29.6037 19.5804 29.7197 19.704 29.8698C19.8276 30.0199 19.9159 30.1997 19.9615 30.3941C20.0537 30.789 19.9837 31.2279 19.7154 31.5175C12.7565 39.017 5.22964 40 5.16549 40C4.94394 39.9993 4.72714 39.931 4.54034 39.8029C4.35354 39.6749 4.20445 39.4924 4.11044 39.2767C4.01643 39.0611 3.98138 38.8212 4.00936 38.5849C4.03735 38.3487 4.12722 38.1258 4.26851 37.9424Z" fill="#FBFF03"/>
<path d="M22 34C9.84974 34 0 26.3888 0 17C0 7.61116 9.84974 0 22 0C34.1503 0 44 7.61116 44 17C44 26.3888 34.1503 34 22 34Z" fill="#FBFF03"/>
<path d="M22 23C18.6863 23 16 20.3137 16 17C16 13.6863 18.6863 11 22 11C25.3137 11 28 13.6863 28 17C28 20.3137 25.3137 23 22 23Z" fill="#FBFF03"/>
<path d="M22 6C28.0659 6 33 10.9341 33 17C33 23.0659 28.0659 28 22 28C15.9341 28 11 23.0659 11 17C11 10.9341 15.9341 6 22 6ZM22 23.1111C22.8026 23.111 23.5973 22.9529 24.3388 22.6456C25.0803 22.3384 25.754 21.8882 26.3215 21.3206C27.4675 20.1743 28.1113 18.6197 28.1111 16.9988C28.1109 15.3778 27.4669 13.8234 26.3206 12.6773C25.1743 11.5313 23.6197 10.8875 21.9988 10.8877C20.3778 10.8878 18.8234 11.5319 17.6773 12.6782C16.5313 13.8245 15.8875 15.3791 15.8877 17C15.8878 18.6209 16.5319 20.1754 17.6782 21.3215C18.8245 22.4675 20.3791 23.1113 22 23.1111Z" fill="white"/>
</svg>
