<svg width="59" height="29" viewBox="0 0 59 29" fill="none" xmlns="http://www.w3.org/2000/svg">
<path fill-rule="evenodd" clip-rule="evenodd" d="M37.7179 24.1085L53.3234 27.8593C54.0061 28.0236 54.7225 28.0363 55.4095 27.9014C56.1006 27.7623 56.7454 27.48 57.2975 27.0712C57.8418 26.6729 58.2826 26.1497 58.5828 25.5456C58.8778 24.9566 59.0211 24.3034 59 23.645V5.1864C59.0218 4.52979 58.8798 3.87809 58.587 3.28998C58.2874 2.68438 57.8466 2.15971 57.3017 1.76019C56.7439 1.34576 56.1001 1.06203 55.4179 0.929976C54.7258 0.798271 54.0138 0.812625 53.3276 0.972118L37.68 4.85769C39.079 6.04479 40.2028 7.52217 40.9735 9.18725C41.7442 10.8523 42.1432 12.6652 42.1429 14.5C42.1429 18.3434 40.4277 21.7907 37.7179 24.1085ZM29.5 22.9285C31.7354 22.9285 33.8793 22.0405 35.4599 20.4599C37.0406 18.8792 37.9286 16.7354 37.9286 14.5C37.9286 12.2646 37.0406 10.1207 35.4599 8.54008C33.8793 6.95941 31.7354 6.0714 29.5 6.0714C27.2646 6.0714 25.1208 6.95941 23.5401 8.54008C21.9595 10.1207 21.0715 12.2646 21.0715 14.5C21.0715 16.7354 21.9595 18.8792 23.5401 20.4599C25.1208 22.0405 27.2646 22.9285 29.5 22.9285ZM5.67668 27.9435L21.2822 24.1928C19.8944 23.0058 18.7803 21.5323 18.0164 19.8736C17.2525 18.2149 16.8571 16.4104 16.8572 14.5843C16.8545 12.7487 17.2529 10.9347 18.0246 9.26917C18.7962 7.60364 19.9224 6.12681 21.3243 4.94198L5.67668 1.0564C4.99181 0.897503 4.28133 0.88315 3.59061 1.01426C2.89947 1.15333 2.25468 1.43569 1.70261 1.84448C1.15824 2.2428 0.717437 2.76599 0.417251 3.37005C0.123776 3.95943 -0.0181691 4.61267 0.00425083 5.27069V23.7293C-0.0174654 24.3859 0.124461 25.0376 0.417251 25.6257C0.712251 26.2241 1.15054 26.7467 1.70261 27.1555C2.25047 27.5643 2.89947 27.8466 3.59061 27.9857C4.27754 28.1205 4.99397 28.1079 5.67668 27.9435Z" fill="#A600FF"/>
</svg>
