<svg width="43" height="43" viewBox="0 0 43 43" fill="none" xmlns="http://www.w3.org/2000/svg">
<path d="M0 0H43V43H0V0ZM21.5 38.7C26.0617 38.7 30.4366 36.8879 33.6622 33.6622C36.8879 30.4366 38.7 26.0617 38.7 21.5C38.7 16.9383 36.8879 12.5634 33.6622 9.33776C30.4366 6.11214 26.0617 4.3 21.5 4.3C16.9383 4.3 12.5634 6.11214 9.33776 9.33776C6.11214 12.5634 4.3 16.9383 4.3 21.5C4.3 26.0617 6.11214 30.4366 9.33776 33.6622C12.5634 36.8879 16.9383 38.7 21.5 38.7ZM21.5 27.95C19.7894 27.95 18.1488 27.2705 16.9392 26.0608C15.7296 24.8512 15.05 23.2106 15.05 21.5C15.05 19.7894 15.7296 18.1488 16.9392 16.9392C18.1488 15.7296 19.7894 15.05 21.5 15.05C23.2106 15.05 24.8512 15.7296 26.0608 16.9392C27.2705 18.1488 27.95 19.7894 27.95 21.5C27.95 23.2106 27.2705 24.8512 26.0608 26.0608C24.8512 27.2705 23.2106 27.95 21.5 27.95Z" fill="#FFF700"/>
</svg>
